<svg width="1920" height="1246" viewBox="0 0 1920 1246" fill="none" xmlns="http://www.w3.org/2000/svg">
<g opacity="0.25" clip-path="url(#clip0_67_432)">
<path opacity="0.5" fill-rule="evenodd" clip-rule="evenodd" d="M405.679 889.289C407.099 887.88 409.407 887.88 410.827 889.289L488.217 966.256L483.07 971.381L408.253 896.967L333.436 971.381L328.289 966.256L405.679 889.289Z" fill="white"/>
<path opacity="0.5" fill-rule="evenodd" clip-rule="evenodd" d="M692.81 1174.88C694.23 1173.47 696.537 1173.47 697.957 1174.88L775.348 1251.84L770.2 1256.97L695.383 1182.55L620.567 1256.97L615.419 1251.84L692.81 1174.88Z" fill="white"/>
<path opacity="0.5" fill-rule="evenodd" clip-rule="evenodd" d="M1789.2 84.3664C1790.62 82.9573 1792.93 82.9573 1794.35 84.3664L1871.74 161.333L1866.59 166.459L1791.77 92.0442L1716.96 166.459L1711.81 161.333L1789.2 84.3664Z" fill="white"/>
<path opacity="0.5" fill-rule="evenodd" clip-rule="evenodd" d="M116.996 602.161C118.416 600.752 120.723 600.752 122.143 602.161L199.534 679.128L194.386 684.253L119.57 609.839L44.753 684.253L39.6055 679.128L116.996 602.161Z" fill="white"/>
<path opacity="0.5" fill-rule="evenodd" clip-rule="evenodd" d="M952.239 345.666C953.659 344.257 955.966 344.257 957.386 345.666L1034.78 422.632L1029.63 427.758L954.812 353.344L879.996 427.758L874.848 422.632L952.239 345.666Z" fill="white"/>
<path opacity="0.5" fill-rule="evenodd" clip-rule="evenodd" d="M1528.05 918.393C1529.47 916.984 1531.78 916.984 1533.2 918.393L1610.59 995.359L1605.44 1000.48L1530.63 926.07L1455.81 1000.48L1450.66 995.359L1528.05 918.393Z" fill="white"/>
<path opacity="0.5" fill-rule="evenodd" clip-rule="evenodd" d="M1239.37 631.252C1240.79 629.843 1243.1 629.843 1244.52 631.252L1321.91 708.218L1316.76 713.344L1241.94 638.93L1167.13 713.344L1161.98 708.218L1239.37 631.252Z" fill="white"/>
<path opacity="0.5" fill-rule="evenodd" clip-rule="evenodd" d="M663.555 58.5373C664.975 57.1282 667.283 57.1282 668.703 58.5373L746.093 135.504L740.946 140.629L666.129 66.215L591.312 140.629L586.165 135.504L663.555 58.5373Z" fill="white"/>
<path opacity="0.5" fill-rule="evenodd" clip-rule="evenodd" d="M1815.18 1203.97C1816.6 1202.56 1818.91 1202.56 1820.33 1203.97L1897.72 1280.93L1892.57 1286.06L1817.76 1211.65L1742.94 1286.06L1737.79 1280.93L1815.18 1203.97Z" fill="white"/>
<path opacity="0.5" fill-rule="evenodd" clip-rule="evenodd" d="M952.239 541.405C953.659 542.814 955.966 542.814 957.386 541.405L1034.78 464.438L1029.63 459.312L954.812 533.727L879.996 459.312L874.848 464.438L952.239 541.405Z" fill="white"/>
<path opacity="0.5" fill-rule="evenodd" clip-rule="evenodd" d="M1528.05 1114.13C1529.47 1115.54 1531.78 1115.54 1533.2 1114.13L1610.59 1037.16L1605.44 1032.04L1530.63 1106.45L1455.81 1032.04L1450.66 1037.16L1528.05 1114.13Z" fill="white"/>
<path opacity="0.5" fill-rule="evenodd" clip-rule="evenodd" d="M1239.37 826.991C1240.79 828.4 1243.1 828.4 1244.52 826.991L1321.91 750.024L1316.76 744.898L1241.94 819.313L1167.13 744.898L1161.98 750.024L1239.37 826.991Z" fill="white"/>
<path opacity="0.5" fill-rule="evenodd" clip-rule="evenodd" d="M663.555 254.276C664.975 255.685 667.283 255.685 668.703 254.276L746.093 177.309L740.946 172.184L666.129 246.598L591.312 172.184L586.165 177.309L663.555 254.276Z" fill="white"/>
<path opacity="0.5" fill-rule="evenodd" clip-rule="evenodd" d="M678.809 889.289C680.229 887.88 682.537 887.88 683.957 889.289L761.347 966.256L756.2 971.381L681.383 896.967L606.566 971.381L601.419 966.256L678.809 889.289Z" fill="white"/>
<path opacity="0.5" fill-rule="evenodd" clip-rule="evenodd" d="M103.007 316.586C104.427 315.177 106.734 315.177 108.154 316.586L185.545 393.552L180.397 398.678L105.58 324.264L30.7637 398.678L25.6162 393.552L103.007 316.586Z" fill="white"/>
<path opacity="0.5" fill-rule="evenodd" clip-rule="evenodd" d="M965.929 1174.88C967.349 1173.47 969.656 1173.47 971.076 1174.88L1048.47 1251.84L1043.32 1256.97L968.502 1182.55L893.686 1256.97L888.538 1251.84L965.929 1174.88Z" fill="white"/>
<path opacity="0.5" fill-rule="evenodd" clip-rule="evenodd" d="M390.126 602.161C391.546 600.752 393.853 600.752 395.273 602.161L472.664 679.128L467.516 684.253L392.7 609.839L317.883 684.253L312.735 679.128L390.126 602.161Z" fill="white"/>
<path opacity="0.5" fill-rule="evenodd" clip-rule="evenodd" d="M678.809 1085.03C680.229 1086.44 682.537 1086.44 683.957 1085.03L761.347 1008.06L756.2 1002.94L681.383 1077.35L606.566 1002.94L601.419 1008.06L678.809 1085.03Z" fill="white"/>
<path opacity="0.5" fill-rule="evenodd" clip-rule="evenodd" d="M103.007 512.325C104.427 513.734 106.734 513.734 108.154 512.325L185.545 435.358L180.397 430.232L105.58 504.647L30.7637 430.232L25.6162 435.358L103.007 512.325Z" fill="white"/>
<path opacity="0.5" fill-rule="evenodd" clip-rule="evenodd" d="M390.126 797.9C391.546 799.309 393.853 799.309 395.273 797.9L472.664 720.934L467.516 715.808L392.7 790.222L317.883 715.808L312.735 720.934L390.126 797.9Z" fill="white"/>
<path opacity="0.5" fill-rule="evenodd" clip-rule="evenodd" d="M1225.37 345.677C1226.79 344.268 1229.1 344.268 1230.52 345.677L1307.91 422.643L1302.76 427.769L1227.94 353.355L1153.13 427.769L1147.98 422.643L1225.37 345.677Z" fill="white"/>
<path opacity="0.5" fill-rule="evenodd" clip-rule="evenodd" d="M1801.18 918.393C1802.6 916.984 1804.91 916.984 1806.33 918.393L1883.72 995.359L1878.57 1000.48L1803.76 926.07L1728.94 1000.48L1723.79 995.359L1801.18 918.393Z" fill="white"/>
<path opacity="0.5" fill-rule="evenodd" clip-rule="evenodd" d="M1512.49 631.252C1513.91 629.843 1516.22 629.843 1517.64 631.252L1595.03 708.218L1589.88 713.344L1515.06 638.93L1440.24 713.344L1435.1 708.218L1512.49 631.252Z" fill="white"/>
<path opacity="0.5" fill-rule="evenodd" clip-rule="evenodd" d="M936.685 58.5373C938.105 57.1282 940.413 57.1282 941.833 58.5373L1019.22 135.504L1014.08 140.629L939.259 66.215L864.442 140.629L859.295 135.504L936.685 58.5373Z" fill="white"/>
<path opacity="0.5" fill-rule="evenodd" clip-rule="evenodd" d="M1225.37 541.405C1226.79 542.814 1229.1 542.814 1230.52 541.405L1307.91 464.438L1302.76 459.312L1227.94 533.727L1153.13 459.312L1147.98 464.438L1225.37 541.405Z" fill="white"/>
<path opacity="0.5" fill-rule="evenodd" clip-rule="evenodd" d="M1801.18 1114.13C1802.6 1115.54 1804.91 1115.54 1806.33 1114.13L1883.72 1037.16L1878.57 1032.04L1803.76 1106.45L1728.94 1032.04L1723.79 1037.16L1801.18 1114.13Z" fill="white"/>
<path opacity="0.5" fill-rule="evenodd" clip-rule="evenodd" d="M1512.49 826.991C1513.91 828.4 1516.22 828.4 1517.64 826.991L1595.03 750.024L1589.88 744.898L1515.06 819.313L1440.24 744.898L1435.1 750.024L1512.49 826.991Z" fill="white"/>
<path opacity="0.5" fill-rule="evenodd" clip-rule="evenodd" d="M936.685 254.276C938.105 255.685 940.413 255.685 941.833 254.276L1019.22 177.309L1014.08 172.184L939.259 246.598L864.442 172.184L859.295 177.309L936.685 254.276Z" fill="white"/>
<path opacity="0.5" fill-rule="evenodd" clip-rule="evenodd" d="M541.102 1027.73C542.522 1026.32 544.829 1026.32 546.249 1027.73L623.64 1104.7L618.492 1109.83L543.675 1035.41L468.859 1109.83L463.711 1104.7L541.102 1027.73Z" fill="white"/>
<path opacity="0.5" fill-rule="evenodd" clip-rule="evenodd" d="M1637.5 -62.7645C1638.92 -64.1736 1641.23 -64.1736 1642.65 -62.7645L1720.04 14.2018L1714.89 19.3277L1640.08 -55.0867L1565.26 19.3277L1560.11 14.2018L1637.5 -62.7645Z" fill="white"/>
<path opacity="0.5" fill-rule="evenodd" clip-rule="evenodd" d="M-34.7008 455.029C-33.2808 453.62 -30.9733 453.62 -29.5533 455.029L47.8372 531.996L42.6897 537.122L-32.127 462.707L-106.944 537.122L-112.091 531.996L-34.7008 455.029Z" fill="white"/>
<path opacity="0.5" fill-rule="evenodd" clip-rule="evenodd" d="M1924.62 222.811C1926.04 221.402 1928.35 221.402 1929.77 222.811L2007.16 299.777L2002.01 304.903L1927.2 230.488L1852.38 304.903L1847.23 299.777L1924.62 222.811Z" fill="white"/>
<path opacity="0.5" fill-rule="evenodd" clip-rule="evenodd" d="M252.418 740.606C253.838 739.197 256.146 739.197 257.566 740.606L334.956 817.572L329.809 822.698L254.992 748.283L180.175 822.698L175.028 817.572L252.418 740.606Z" fill="white"/>
<path opacity="0.5" fill-rule="evenodd" clip-rule="evenodd" d="M1087.67 484.11C1089.09 482.7 1091.4 482.7 1092.82 484.11L1170.21 561.076L1165.06 566.202L1090.25 491.787L1015.43 566.202L1010.28 561.076L1087.67 484.11Z" fill="white"/>
<path opacity="0.5" fill-rule="evenodd" clip-rule="evenodd" d="M1663.49 1056.84C1664.91 1055.43 1667.21 1055.43 1668.63 1056.84L1746.02 1133.8L1740.88 1138.93L1666.06 1064.51L1591.24 1138.93L1586.1 1133.8L1663.49 1056.84Z" fill="white"/>
<path opacity="0.5" fill-rule="evenodd" clip-rule="evenodd" d="M1374.79 769.696C1376.21 768.287 1378.52 768.287 1379.94 769.696L1457.33 846.663L1452.18 851.789L1377.37 777.374L1302.55 851.789L1297.4 846.663L1374.79 769.696Z" fill="white"/>
<path opacity="0.5" fill-rule="evenodd" clip-rule="evenodd" d="M798.977 196.982C800.397 195.573 802.705 195.573 804.125 196.982L881.515 273.948L876.368 279.074L801.551 204.659L726.734 279.074L721.587 273.948L798.977 196.982Z" fill="white"/>
<path opacity="0.5" fill-rule="evenodd" clip-rule="evenodd" d="M1087.67 679.848C1089.09 681.257 1091.4 681.257 1092.82 679.848L1170.21 602.882L1165.06 597.756L1090.25 672.17L1015.43 597.756L1010.28 602.882L1087.67 679.848Z" fill="white"/>
<path opacity="0.5" fill-rule="evenodd" clip-rule="evenodd" d="M511.858 107.133C513.278 108.542 515.586 108.542 517.006 107.133L594.396 30.1669L589.249 25.041L514.432 99.4554L439.615 25.041L434.468 30.1669L511.858 107.133Z" fill="white"/>
<path opacity="0.5" fill-rule="evenodd" clip-rule="evenodd" d="M1663.49 1252.57C1664.91 1253.98 1667.21 1253.98 1668.63 1252.57L1746.02 1175.61L1740.88 1170.48L1666.06 1244.9L1591.24 1170.48L1586.1 1175.61L1663.49 1252.57Z" fill="white"/>
<path opacity="0.5" fill-rule="evenodd" clip-rule="evenodd" d="M1374.79 965.435C1376.21 966.844 1378.52 966.844 1379.94 965.435L1457.33 888.469L1452.18 883.343L1377.37 957.757L1302.55 883.343L1297.4 888.469L1374.79 965.435Z" fill="white"/>
<path opacity="0.5" fill-rule="evenodd" clip-rule="evenodd" d="M798.989 392.72C800.409 394.129 802.716 394.129 804.136 392.72L881.527 315.754L876.379 310.628L801.562 385.042L726.746 310.628L721.598 315.754L798.989 392.72Z" fill="white"/>
<path opacity="0.5" d="M524.561 974.268H513.633V981.513H524.561V974.268Z" fill="white"/>
<path opacity="0.5" d="M1908.08 169.333H1897.15V176.578H1908.08V169.333Z" fill="white"/>
<path opacity="0.5" d="M235.877 687.127H224.95V694.372H235.877V687.127Z" fill="white"/>
<path opacity="0.5" d="M548.235 998.255H540.946V1009.12H548.235V998.255Z" fill="white"/>
<path opacity="0.5" d="M259.552 711.126H252.263V721.988H259.552V711.126Z" fill="white"/>
<path opacity="0.5" d="M574.638 974.268H563.711V981.513H574.638V974.268Z" fill="white"/>
<path opacity="0.5" d="M285.955 687.127H275.027V694.372H285.955V687.127Z" fill="white"/>
<path opacity="0.5" d="M1071.13 430.644H1060.2V437.889H1071.13V430.644Z" fill="white"/>
<path opacity="0.5" d="M1646.94 1003.36H1636.02V1010.6H1646.94V1003.36Z" fill="white"/>
<path opacity="0.5" d="M1358.25 716.219H1347.32V723.464H1358.25V716.219Z" fill="white"/>
<path opacity="0.5" d="M782.437 143.503H771.509V150.748H782.437V143.503Z" fill="white"/>
<path opacity="0.5" d="M1094.81 454.63H1087.52V465.492H1094.81V454.63Z" fill="white"/>
<path opacity="0.5" d="M1670.61 1027.36H1663.32V1038.22H1670.61V1027.36Z" fill="white"/>
<path opacity="0.5" d="M1381.92 740.217H1374.64V751.079H1381.92V740.217Z" fill="white"/>
<path opacity="0.5" d="M806.111 167.502H798.822V178.364H806.111V167.502Z" fill="white"/>
<path opacity="0.5" d="M1121.2 430.644H1110.27V437.889H1121.2V430.644Z" fill="white"/>
<path opacity="0.5" d="M1697.01 1003.36H1686.08V1010.6H1697.01V1003.36Z" fill="white"/>
<path opacity="0.5" d="M1408.32 716.219H1397.39V723.464H1408.32V716.219Z" fill="white"/>
<path opacity="0.5" d="M832.514 143.503H821.587V150.748H832.514V143.503Z" fill="white"/>
<path opacity="0.5" fill-rule="evenodd" clip-rule="evenodd" d="M541.113 750.801C542.533 749.392 544.84 749.392 546.26 750.801L623.651 827.767L618.503 832.893L543.686 758.479L468.87 832.893L463.722 827.767L541.113 750.801Z" fill="white"/>
<path opacity="0.5" fill-rule="evenodd" clip-rule="evenodd" d="M-34.7009 178.098C-33.2809 176.689 -30.9734 176.689 -29.5534 178.098L47.8371 255.064L42.6896 260.19L-32.1272 185.776L-106.933 260.19L-112.08 255.064L-34.6898 178.098H-34.7009Z" fill="white"/>
<path opacity="0.5" fill-rule="evenodd" clip-rule="evenodd" d="M828.232 1036.39C829.652 1034.98 831.959 1034.98 833.379 1036.39L910.77 1113.35L905.622 1118.48L830.806 1044.07L755.989 1118.48L750.841 1113.35L828.232 1036.39Z" fill="white"/>
<path opacity="0.5" fill-rule="evenodd" clip-rule="evenodd" d="M1924.62 -54.1219C1926.04 -55.531 1928.35 -55.531 1929.77 -54.1219L2007.16 22.8444L2002.01 27.9703L1927.2 -46.4441L1852.38 27.9703L1847.23 22.8444L1924.62 -54.1219Z" fill="white"/>
<path opacity="0.5" fill-rule="evenodd" clip-rule="evenodd" d="M252.418 463.673C253.838 462.264 256.146 462.264 257.566 463.673L334.956 540.639L329.809 545.765L254.992 471.351L180.175 545.765L175.028 540.639L252.418 463.673Z" fill="white"/>
<path opacity="0.5" fill-rule="evenodd" clip-rule="evenodd" d="M541.113 946.54C542.533 947.95 544.84 947.95 546.26 946.54L623.651 869.574L618.503 864.448L543.686 938.863L468.87 864.448L463.722 869.574L541.113 946.54Z" fill="white"/>
<path opacity="0.5" fill-rule="evenodd" clip-rule="evenodd" d="M-34.7009 373.826C-33.2809 375.235 -30.9734 375.235 -29.5534 373.826L47.8371 296.859L42.6896 291.733L-32.1272 366.148L-106.933 291.733L-112.08 296.859L-34.6898 373.826H-34.7009Z" fill="white"/>
<path opacity="0.5" fill-rule="evenodd" clip-rule="evenodd" d="M828.232 1232.13C829.652 1233.54 831.959 1233.54 833.379 1232.13L910.77 1155.16L905.622 1150.04L830.806 1224.45L755.989 1150.04L750.841 1155.16L828.232 1232.13Z" fill="white"/>
<path opacity="0.5" fill-rule="evenodd" clip-rule="evenodd" d="M1924.62 141.617C1926.04 143.026 1928.35 143.026 1929.77 141.617L2007.16 64.6503L2002.01 59.5244L1927.2 133.939L1852.38 59.5244L1847.23 64.6503L1924.62 141.617Z" fill="white"/>
<path opacity="0.5" fill-rule="evenodd" clip-rule="evenodd" d="M252.418 659.412C253.838 660.821 256.146 660.821 257.566 659.412L334.956 582.445L329.809 577.319L254.992 651.734L180.175 577.319L175.028 582.445L252.418 659.412Z" fill="white"/>
<path opacity="0.5" fill-rule="evenodd" clip-rule="evenodd" d="M1087.67 207.178C1089.09 205.769 1091.4 205.769 1092.82 207.178L1170.21 284.144L1165.06 289.27L1090.25 214.856L1015.43 289.27L1010.28 284.144L1087.67 207.178Z" fill="white"/>
<path opacity="0.5" fill-rule="evenodd" clip-rule="evenodd" d="M1663.49 779.903C1664.91 778.494 1667.21 778.494 1668.63 779.903L1746.02 856.87L1740.88 861.996L1666.06 787.581L1591.24 861.996L1586.1 856.87L1663.49 779.903Z" fill="white"/>
<path opacity="0.5" fill-rule="evenodd" clip-rule="evenodd" d="M1374.79 492.764C1376.21 491.355 1378.52 491.355 1379.94 492.764L1457.33 569.73L1452.18 574.856L1377.37 500.442L1302.55 574.856L1297.4 569.73L1374.79 492.764Z" fill="white"/>
<path opacity="0.5" fill-rule="evenodd" clip-rule="evenodd" d="M798.989 -79.951C800.409 -81.3601 802.716 -81.3601 804.136 -79.951L881.527 -2.98472L876.379 2.14119L801.562 -72.2732L726.746 2.14119L721.598 -2.98472L798.989 -79.951Z" fill="white"/>
<path opacity="0.5" fill-rule="evenodd" clip-rule="evenodd" d="M1950.6 1065.48C1952.02 1064.07 1954.33 1064.07 1955.75 1065.48L2033.14 1142.44L2028 1147.57L1953.18 1073.16L1878.36 1147.57L1873.21 1142.44L1950.6 1065.48Z" fill="white"/>
<path opacity="0.5" fill-rule="evenodd" clip-rule="evenodd" d="M1087.67 402.916C1089.09 404.326 1091.4 404.326 1092.82 402.916L1170.21 325.95L1165.06 320.824L1090.25 395.239L1015.43 320.824L1010.28 325.95L1087.67 402.916Z" fill="white"/>
<path opacity="0.5" fill-rule="evenodd" clip-rule="evenodd" d="M1663.49 975.643C1664.91 977.052 1667.21 977.052 1668.63 975.643L1746.02 898.677L1740.88 893.551L1666.06 967.965L1591.24 893.551L1586.1 898.677L1663.49 975.643Z" fill="white"/>
<path opacity="0.5" fill-rule="evenodd" clip-rule="evenodd" d="M1374.79 688.502C1376.21 689.911 1378.52 689.911 1379.94 688.502L1457.33 611.536L1452.18 606.41L1377.37 680.825L1302.55 606.41L1297.4 611.536L1374.79 688.502Z" fill="white"/>
<path opacity="0.5" fill-rule="evenodd" clip-rule="evenodd" d="M798.989 115.788C800.409 117.197 802.716 117.197 804.136 115.788L881.527 38.8212L876.379 33.6953L801.562 108.11L726.746 33.6953L721.598 38.8212L798.989 115.788Z" fill="white"/>
<path opacity="0.5" fill-rule="evenodd" clip-rule="evenodd" d="M1950.6 1261.22C1952.02 1262.63 1954.33 1262.63 1955.75 1261.22L2033.14 1184.25L2028 1179.12L1953.18 1253.54L1878.36 1179.12L1873.21 1184.25L1950.6 1261.22Z" fill="white"/>
<path opacity="0.5" fill-rule="evenodd" clip-rule="evenodd" d="M951.584 617.983C953.004 616.574 955.312 616.574 956.732 617.983L1034.12 694.949L1028.97 700.075L954.158 625.66L879.341 700.075L874.194 694.949L951.584 617.983Z" fill="white"/>
<path opacity="0.5" fill-rule="evenodd" clip-rule="evenodd" d="M375.782 45.2677C377.202 43.8587 379.509 43.8587 380.929 45.2677L458.32 122.234L453.172 127.36L378.355 52.9455L303.539 127.36L298.391 122.234L375.782 45.2677Z" fill="white"/>
<path opacity="0.5" fill-rule="evenodd" clip-rule="evenodd" d="M1527.4 1190.71C1528.82 1189.3 1531.13 1189.3 1532.55 1190.71L1609.94 1267.68L1604.79 1272.8L1529.97 1198.39L1455.15 1272.8L1450.01 1267.68L1527.4 1190.71Z" fill="white"/>
<path opacity="0.5" fill-rule="evenodd" clip-rule="evenodd" d="M1238.7 903.558C1240.12 902.149 1242.43 902.149 1243.85 903.558L1321.24 980.524L1316.09 985.65L1241.28 911.236L1166.46 985.65L1161.31 980.524L1238.7 903.558Z" fill="white"/>
<path opacity="0.5" fill-rule="evenodd" clip-rule="evenodd" d="M662.901 330.855C664.321 329.446 666.628 329.446 668.048 330.855L745.439 407.821L740.291 412.947L665.475 338.532L590.658 412.947L585.51 407.821L662.901 330.855Z" fill="white"/>
<path opacity="0.5" fill-rule="evenodd" clip-rule="evenodd" d="M951.584 813.721C953.004 815.13 955.312 815.13 956.732 813.721L1034.12 736.755L1028.97 731.629L954.158 806.043L879.341 731.629L874.194 736.755L951.584 813.721Z" fill="white"/>
<path opacity="0.5" fill-rule="evenodd" clip-rule="evenodd" d="M375.782 241.006C377.202 242.415 379.509 242.415 380.929 241.006L458.32 164.04L453.172 158.914L378.355 233.328L303.539 158.914L298.391 164.04L375.782 241.006Z" fill="white"/>
<path opacity="0.5" fill-rule="evenodd" clip-rule="evenodd" d="M1238.7 1099.3C1240.12 1100.71 1242.43 1100.71 1243.85 1099.3L1321.24 1022.33L1316.09 1017.21L1241.28 1091.62L1166.46 1017.21L1161.31 1022.33L1238.7 1099.3Z" fill="white"/>
<path opacity="0.5" fill-rule="evenodd" clip-rule="evenodd" d="M662.901 526.593C664.321 528.002 666.628 528.002 668.048 526.593L745.439 449.627L740.291 444.501L665.475 518.915L590.658 444.501L585.51 449.627L662.901 526.593Z" fill="white"/>
<path opacity="0.5" fill-rule="evenodd" clip-rule="evenodd" d="M402.651 1163.97C404.071 1162.56 406.378 1162.56 407.798 1163.97L485.189 1240.94L480.041 1246.06L405.225 1171.65L330.408 1246.06L325.26 1240.94L402.651 1163.97Z" fill="white"/>
<path opacity="0.5" fill-rule="evenodd" clip-rule="evenodd" d="M1498.14 74.3586C1499.56 72.9495 1501.87 72.9495 1503.29 74.3586L1580.68 151.325L1575.53 156.451L1500.72 82.0363L1425.9 156.451L1420.75 151.325L1498.14 74.3586Z" fill="white"/>
<path opacity="0.5" fill-rule="evenodd" clip-rule="evenodd" d="M1785.27 359.934C1786.69 358.525 1789 358.525 1790.42 359.934L1867.81 436.9L1862.66 442.026L1787.85 367.612L1713.03 442.026L1707.88 436.9L1785.27 359.934Z" fill="white"/>
<path opacity="0.5" fill-rule="evenodd" clip-rule="evenodd" d="M113.967 876.83C115.387 875.421 117.695 875.421 119.115 876.83L196.505 953.797L191.358 958.923L116.541 884.508L41.7242 958.923L36.5767 953.797L113.967 876.83Z" fill="white"/>
<path opacity="0.5" fill-rule="evenodd" clip-rule="evenodd" d="M1498.14 270.098C1499.56 271.507 1501.87 271.507 1503.29 270.098L1580.68 193.132L1575.53 188.006L1500.72 262.42L1425.9 188.006L1420.75 193.132L1498.14 270.098Z" fill="white"/>
<path opacity="0.5" fill-rule="evenodd" clip-rule="evenodd" d="M1785.26 555.684C1786.68 557.093 1788.99 557.093 1790.41 555.684L1867.8 478.718L1862.65 473.592L1787.84 548.006L1713.02 473.592L1707.87 478.718L1785.26 555.684Z" fill="white"/>
<path opacity="0.5" fill-rule="evenodd" clip-rule="evenodd" d="M113.967 1072.58C115.387 1073.99 117.695 1073.99 119.115 1072.58L196.505 995.614L191.358 990.488L116.541 1064.9L41.7244 990.488L36.5769 995.614L113.967 1072.58Z" fill="white"/>
<path opacity="0.5" d="M798.545 984.43H787.617V991.675H798.545V984.43Z" fill="white"/>
<path opacity="0.5" d="M222.731 411.715H211.804V418.96H222.731V411.715Z" fill="white"/>
<path opacity="0.5" d="M509.861 697.29H498.934V704.535H509.861V697.29Z" fill="white"/>
<path opacity="0.5" d="M822.208 1008.43H814.919V1019.29H822.208V1008.43Z" fill="white"/>
<path opacity="0.5" d="M246.405 435.713H239.117V446.575H246.405V435.713Z" fill="white"/>
<path opacity="0.5" d="M533.524 721.288H526.236V732.15H533.524V721.288Z" fill="white"/>
<path opacity="0.5" d="M848.611 984.43H837.684V991.675H848.611V984.43Z" fill="white"/>
<path opacity="0.5" d="M272.809 411.715H261.881V418.96H272.809V411.715Z" fill="white"/>
<path opacity="0.5" d="M559.928 697.29H549V704.535H559.928V697.29Z" fill="white"/>
<path opacity="0.5" d="M1345.1 440.806H1334.18V448.051H1345.1V440.806Z" fill="white"/>
<path opacity="0.5" d="M1920.92 1013.52H1909.99V1020.77H1920.92V1013.52Z" fill="white"/>
<path opacity="0.5" d="M1632.22 726.382H1621.3V733.627H1632.22V726.382Z" fill="white"/>
<path opacity="0.5" d="M1056.42 153.666H1045.49V160.911H1056.42V153.666Z" fill="white"/>
<path opacity="0.5" d="M1368.78 464.805H1361.49V475.667H1368.78V464.805Z" fill="white"/>
<path opacity="0.5" d="M1655.9 750.38H1648.61V761.242H1655.9V750.38Z" fill="white"/>
<path opacity="0.5" d="M1080.1 177.665H1072.81V188.527H1080.1V177.665Z" fill="white"/>
<path opacity="0.5" d="M1395.18 440.806H1384.25V448.051H1395.18V440.806Z" fill="white"/>
<path opacity="0.5" d="M1682.3 726.382H1671.37V733.627H1682.3V726.382Z" fill="white"/>
<path opacity="0.5" d="M1106.49 153.666H1095.56V160.911H1106.49V153.666Z" fill="white"/>
<path opacity="0.5" d="M1071.32 713.123H1060.39V720.368H1071.32V713.123Z" fill="white"/>
<path opacity="0.5" d="M495.506 140.407H484.579V147.652H495.506V140.407Z" fill="white"/>
<path opacity="0.5" d="M1358.44 998.698H1347.51V1005.94H1358.44V998.698Z" fill="white"/>
<path opacity="0.5" d="M782.636 425.983H771.709V433.228H782.636V425.983Z" fill="white"/>
<path opacity="0.5" d="M1094.99 737.11H1087.71V747.972H1094.99V737.11Z" fill="white"/>
<path opacity="0.5" d="M519.18 164.406H511.892V175.268H519.18V164.406Z" fill="white"/>
<path opacity="0.5" d="M1382.11 1022.7H1374.82V1033.56H1382.11V1022.7Z" fill="white"/>
<path opacity="0.5" d="M806.311 449.981H799.022V460.843H806.311V449.981Z" fill="white"/>
<path opacity="0.5" d="M1121.39 713.123H1110.46V720.368H1121.39V713.123Z" fill="white"/>
<path opacity="0.5" d="M545.584 140.407H534.656V147.652H545.584V140.407Z" fill="white"/>
<path opacity="0.5" d="M1408.52 998.698H1397.59V1005.94H1408.52V998.698Z" fill="white"/>
<path opacity="0.5" d="M832.703 425.983H821.775V433.228H832.703V425.983Z" fill="white"/>
<path opacity="0.5" d="M1617.88 169.499H1606.95V176.744H1617.88V169.499Z" fill="white"/>
<path opacity="0.5" d="M1905 455.074H1894.07V462.319H1905V455.074Z" fill="white"/>
<path opacity="0.5" d="M233.703 971.97H222.775V979.215H233.703V971.97Z" fill="white"/>
<path opacity="0.5" d="M1641.55 193.486H1634.26V204.348H1641.55V193.486Z" fill="white"/>
<path opacity="0.5" d="M257.377 995.969H250.088V1006.83H257.377V995.969Z" fill="white"/>
<path opacity="0.5" d="M1667.95 169.499H1657.02V176.744H1667.95V169.499Z" fill="white"/>
<path opacity="0.5" d="M283.769 971.97H272.842V979.215H283.769V971.97Z" fill="white"/>
<path opacity="0.5" fill-rule="evenodd" clip-rule="evenodd" d="M813.888 756.427C815.308 755.018 817.615 755.018 819.035 756.427L896.426 833.393L891.278 838.519L816.461 764.105L741.645 838.519L736.497 833.393L813.888 756.427Z" fill="white"/>
<path opacity="0.5" fill-rule="evenodd" clip-rule="evenodd" d="M238.074 183.712C239.494 182.303 241.801 182.303 243.221 183.712L320.612 260.678L315.464 265.804L240.648 191.39L165.831 265.804L160.683 260.678L238.074 183.712Z" fill="white"/>
<path opacity="0.5" fill-rule="evenodd" clip-rule="evenodd" d="M1101.01 1042C1102.43 1040.59 1104.73 1040.59 1106.15 1042L1183.54 1118.97L1178.4 1124.09L1103.58 1049.68L1028.76 1124.09L1023.62 1118.97L1101.01 1042Z" fill="white"/>
<path opacity="0.5" fill-rule="evenodd" clip-rule="evenodd" d="M525.204 469.287C526.624 467.878 528.932 467.878 530.352 469.287L607.742 546.254L602.595 551.38L527.778 476.965L452.961 551.38L447.814 546.254L525.204 469.287Z" fill="white"/>
<path opacity="0.5" fill-rule="evenodd" clip-rule="evenodd" d="M813.888 952.165C815.308 953.575 817.615 953.575 819.035 952.165L896.426 875.199L891.278 870.073L816.461 944.488L741.645 870.073L736.497 875.199L813.888 952.165Z" fill="white"/>
<path opacity="0.5" fill-rule="evenodd" clip-rule="evenodd" d="M238.074 379.451C239.494 380.86 241.801 380.86 243.221 379.451L320.612 302.484L315.464 297.358L240.648 371.773L165.831 297.358L160.683 302.484L238.074 379.451Z" fill="white"/>
<path opacity="0.5" fill-rule="evenodd" clip-rule="evenodd" d="M-50.6095 92.311C-49.1895 93.72 -46.882 93.72 -45.462 92.311L31.9285 15.3447L26.781 10.2188L-48.0357 84.6332L-122.852 10.2188L-128 15.3447L-50.6095 92.311Z" fill="white"/>
<path opacity="0.5" fill-rule="evenodd" clip-rule="evenodd" d="M1101.01 1237.74C1102.43 1239.15 1104.73 1239.15 1106.15 1237.74L1183.54 1160.77L1178.4 1155.65L1103.58 1230.06L1028.76 1155.65L1023.62 1160.77L1101.01 1237.74Z" fill="white"/>
<path opacity="0.5" fill-rule="evenodd" clip-rule="evenodd" d="M525.204 665.037C526.624 666.446 528.932 666.446 530.352 665.037L607.742 588.07L602.595 582.944L527.778 657.359L452.961 582.944L447.814 588.07L525.204 665.037Z" fill="white"/>
<path opacity="0.5" fill-rule="evenodd" clip-rule="evenodd" d="M1360.45 212.803C1361.87 211.394 1364.17 211.394 1365.59 212.803L1442.99 289.769L1437.84 294.895L1363.02 220.481L1288.2 294.895L1283.06 289.769L1360.45 212.803Z" fill="white"/>
<path opacity="0.5" fill-rule="evenodd" clip-rule="evenodd" d="M1936.26 785.518C1937.68 784.109 1939.99 784.109 1941.41 785.518L2018.8 862.484L2013.65 867.61L1938.83 793.195L1864.02 867.61L1858.87 862.484L1936.26 785.518Z" fill="white"/>
<path opacity="0.5" fill-rule="evenodd" clip-rule="evenodd" d="M1647.57 498.378C1648.99 496.969 1651.29 496.969 1652.71 498.378L1730.1 575.344L1724.96 580.47L1650.14 506.056L1575.32 580.47L1570.18 575.344L1647.57 498.378Z" fill="white"/>
<path opacity="0.5" fill-rule="evenodd" clip-rule="evenodd" d="M-23.7404 1015.27C-22.3204 1013.86 -20.0128 1013.86 -18.5928 1015.27L58.7977 1092.24L53.6501 1097.37L-21.1666 1022.95L-95.9833 1097.37L-101.131 1092.24L-23.7404 1015.27Z" fill="white"/>
<path opacity="0.5" fill-rule="evenodd" clip-rule="evenodd" d="M1071.76 -74.3368C1073.18 -75.7458 1075.49 -75.7458 1076.91 -74.3368L1154.3 2.62954L1149.15 7.75546L1074.34 -66.659L999.521 7.75546L994.373 2.62954L1071.76 -74.3368Z" fill="white"/>
<path opacity="0.5" fill-rule="evenodd" clip-rule="evenodd" d="M1360.45 408.541C1361.87 409.95 1364.17 409.95 1365.59 408.541L1442.99 331.575L1437.84 326.449L1363.02 400.864L1288.2 326.449L1283.06 331.575L1360.45 408.541Z" fill="white"/>
<path opacity="0.5" fill-rule="evenodd" clip-rule="evenodd" d="M1936.26 981.256C1937.68 982.665 1939.99 982.665 1941.41 981.256L2018.8 904.29L2013.65 899.164L1938.83 973.579L1864.02 899.164L1858.87 904.29L1936.26 981.256Z" fill="white"/>
<path opacity="0.5" fill-rule="evenodd" clip-rule="evenodd" d="M1647.57 694.117C1648.99 695.526 1651.29 695.526 1652.71 694.117L1730.1 617.15L1724.96 612.024L1650.14 686.439L1575.32 612.024L1570.18 617.15L1647.57 694.117Z" fill="white"/>
<path opacity="0.5" fill-rule="evenodd" clip-rule="evenodd" d="M-23.7404 1211.01C-22.3204 1212.42 -20.0128 1212.42 -18.5928 1211.01L58.7977 1134.05L53.6501 1128.92L-21.1666 1203.33L-95.9833 1128.92L-101.131 1134.05L-23.7404 1211.01Z" fill="white"/>
<path opacity="0.5" fill-rule="evenodd" clip-rule="evenodd" d="M1071.76 121.413C1073.18 122.822 1075.49 122.822 1076.91 121.413L1154.3 44.4462L1149.15 39.3203L1074.34 113.735L999.521 39.3203L994.373 44.4462L1071.76 121.413Z" fill="white"/>
<path opacity="0.5" d="M797.347 702.949H786.419V710.194H797.347V702.949Z" fill="white"/>
<path opacity="0.5" d="M221.533 130.233H210.605V137.478H221.533V130.233Z" fill="white"/>
<path opacity="0.5" d="M1084.47 988.523H1073.54V995.769H1084.47V988.523Z" fill="white"/>
<path opacity="0.5" d="M508.663 415.82H497.736V423.065H508.663V415.82Z" fill="white"/>
<path opacity="0.5" d="M821.01 726.947H813.721V737.809H821.01V726.947Z" fill="white"/>
<path opacity="0.5" d="M245.207 154.231H237.918V165.093H245.207V154.231Z" fill="white"/>
<path opacity="0.5" d="M1108.14 1012.52H1100.85V1023.38H1108.14V1012.52Z" fill="white"/>
<path opacity="0.5" d="M532.326 439.818H525.038V450.68H532.326V439.818Z" fill="white"/>
<path opacity="0.5" d="M847.413 702.949H836.486V710.194H847.413V702.949Z" fill="white"/>
<path opacity="0.5" d="M271.611 130.233H260.683V137.478H271.611V130.233Z" fill="white"/>
<path opacity="0.5" d="M1134.54 988.523H1123.62V995.769H1134.54V988.523Z" fill="white"/>
<path opacity="0.5" d="M558.73 415.82H547.802V423.065H558.73V415.82Z" fill="white"/>
<path opacity="0.5" d="M1343.91 159.325H1332.98V166.57H1343.91V159.325Z" fill="white"/>
<path opacity="0.5" d="M1919.72 732.051H1908.79V739.296H1919.72V732.051Z" fill="white"/>
<path opacity="0.5" d="M1631.03 444.9H1620.1V452.145H1631.03V444.9Z" fill="white"/>
<path opacity="0.5" d="M1367.57 183.323H1360.28V194.185H1367.57V183.323Z" fill="white"/>
<path opacity="0.5" d="M1654.7 468.898H1647.41V479.76H1654.7V468.898Z" fill="white"/>
<path opacity="0.5" d="M1393.97 159.325H1383.04V166.57H1393.97V159.325Z" fill="white"/>
<path opacity="0.5" d="M1681.09 444.9H1670.16V452.145H1681.09V444.9Z" fill="white"/>
<path opacity="0.5" d="M9.79631 961.796H-1.1311V969.041H9.79631V961.796Z" fill="white"/>
<path opacity="0.5" fill-rule="evenodd" clip-rule="evenodd" d="M678.454 617.983C679.874 616.574 682.182 616.574 683.602 617.983L760.992 694.949L755.845 700.075L681.028 625.66L606.211 700.075L601.064 694.949L678.454 617.983Z" fill="white"/>
<path opacity="0.5" fill-rule="evenodd" clip-rule="evenodd" d="M102.652 45.2677C104.072 43.8587 106.379 43.8587 107.799 45.2677L185.19 122.234L180.042 127.36L105.225 52.9455L30.4088 127.36L25.2612 122.234L102.652 45.2677Z" fill="white"/>
<path opacity="0.5" fill-rule="evenodd" clip-rule="evenodd" d="M1254.27 1190.71C1255.69 1189.3 1258 1189.3 1259.42 1190.71L1336.81 1267.68L1331.66 1272.8L1256.84 1198.39L1182.02 1272.8L1176.88 1267.68L1254.27 1190.71Z" fill="white"/>
<path opacity="0.5" fill-rule="evenodd" clip-rule="evenodd" d="M965.573 903.558C966.993 902.149 969.301 902.149 970.721 903.558L1048.11 980.524L1042.96 985.65L968.147 911.236L893.33 985.65L888.183 980.524L965.573 903.558Z" fill="white"/>
<path opacity="0.5" fill-rule="evenodd" clip-rule="evenodd" d="M389.771 330.855C391.191 329.446 393.498 329.446 394.918 330.855L472.309 407.821L467.161 412.947L392.345 338.532L317.528 412.947L312.38 407.821L389.771 330.855Z" fill="white"/>
<path opacity="0.5" fill-rule="evenodd" clip-rule="evenodd" d="M678.465 813.721C679.885 815.13 682.193 815.13 683.613 813.721L761.003 736.755L755.856 731.629L681.039 806.043L606.222 731.629L601.075 736.755L678.465 813.721Z" fill="white"/>
<path opacity="0.5" fill-rule="evenodd" clip-rule="evenodd" d="M102.652 241.006C104.072 242.415 106.379 242.415 107.799 241.006L185.19 164.04L180.042 158.914L105.225 233.328L30.4088 158.914L25.2612 164.04L102.652 241.006Z" fill="white"/>
<path opacity="0.5" fill-rule="evenodd" clip-rule="evenodd" d="M965.585 1099.3C967.005 1100.71 969.312 1100.71 970.732 1099.3L1048.12 1022.33L1042.98 1017.21L968.158 1091.62L893.342 1017.21L888.194 1022.33L965.585 1099.3Z" fill="white"/>
<path opacity="0.5" fill-rule="evenodd" clip-rule="evenodd" d="M389.771 526.581C391.191 527.991 393.498 527.991 394.918 526.581L472.309 449.615L467.161 444.489L392.345 518.904L317.528 444.489L312.38 449.615L389.771 526.581Z" fill="white"/>
<path opacity="0.5" fill-rule="evenodd" clip-rule="evenodd" d="M129.521 1163.97C130.941 1162.56 133.248 1162.56 134.668 1163.97L212.059 1240.94L206.911 1246.06L132.095 1171.65L57.2779 1246.06L52.1304 1240.94L129.521 1163.97Z" fill="white"/>
<path opacity="0.5" fill-rule="evenodd" clip-rule="evenodd" d="M1225.02 74.3586C1226.44 72.9495 1228.75 72.9495 1230.17 74.3586L1307.56 151.325L1302.42 156.451L1227.6 82.0363L1152.78 156.451L1147.63 151.325L1225.02 74.3586Z" fill="white"/>
<path opacity="0.5" fill-rule="evenodd" clip-rule="evenodd" d="M1800.83 647.085C1802.25 645.676 1804.55 645.676 1805.97 647.085L1883.37 724.051L1878.22 729.177L1803.4 654.763L1728.58 729.177L1723.44 724.051L1800.83 647.085Z" fill="white"/>
<path opacity="0.5" fill-rule="evenodd" clip-rule="evenodd" d="M1512.14 359.934C1513.56 358.525 1515.87 358.525 1517.29 359.934L1594.68 436.9L1589.53 442.026L1514.72 367.612L1439.9 442.026L1434.75 436.9L1512.14 359.934Z" fill="white"/>
<path opacity="0.5" fill-rule="evenodd" clip-rule="evenodd" d="M1225.02 270.098C1226.44 271.507 1228.75 271.507 1230.17 270.098L1307.56 193.132L1302.42 188.006L1227.6 262.42L1152.78 188.006L1147.63 193.132L1225.02 270.098Z" fill="white"/>
<path opacity="0.5" fill-rule="evenodd" clip-rule="evenodd" d="M1800.84 842.812C1802.26 844.221 1804.57 844.221 1805.99 842.812L1883.38 765.846L1878.23 760.72L1803.41 835.134L1728.6 760.72L1723.45 765.846L1800.84 842.812Z" fill="white"/>
<path opacity="0.5" fill-rule="evenodd" clip-rule="evenodd" d="M1512.14 555.672C1513.56 557.081 1515.87 557.081 1517.29 555.672L1594.68 478.706L1589.53 473.58L1514.72 547.994L1439.9 473.58L1434.75 478.706L1512.14 555.672Z" fill="white"/>
<path opacity="0.5" fill-rule="evenodd" clip-rule="evenodd" d="M813.877 479.494C815.297 478.085 817.604 478.085 819.024 479.494L896.415 556.461L891.267 561.587L816.45 487.172L741.634 561.587L736.486 556.461L813.877 479.494Z" fill="white"/>
<path opacity="0.5" fill-rule="evenodd" clip-rule="evenodd" d="M1389.7 1052.22C1391.12 1050.81 1393.43 1050.81 1394.85 1052.22L1472.24 1129.19L1467.09 1134.31L1392.28 1059.9L1317.46 1134.31L1312.31 1129.19L1389.7 1052.22Z" fill="white"/>
<path opacity="0.5" fill-rule="evenodd" clip-rule="evenodd" d="M1101.01 765.069C1102.43 763.66 1104.73 763.66 1106.15 765.069L1183.54 842.036L1178.4 847.162L1103.58 772.747L1028.76 847.162L1023.62 842.036L1101.01 765.069Z" fill="white"/>
<path opacity="0.5" fill-rule="evenodd" clip-rule="evenodd" d="M525.204 192.366C526.624 190.957 528.932 190.957 530.352 192.366L607.742 269.333L602.595 274.459L527.778 200.044L452.961 274.459L447.814 269.333L525.204 192.366Z" fill="white"/>
<path opacity="0.5" fill-rule="evenodd" clip-rule="evenodd" d="M813.888 675.233C815.308 676.642 817.615 676.642 819.035 675.233L896.426 598.267L891.278 593.141L816.461 667.555L741.645 593.141L736.497 598.267L813.888 675.233Z" fill="white"/>
<path opacity="0.5" fill-rule="evenodd" clip-rule="evenodd" d="M238.074 102.518C239.494 103.927 241.801 103.927 243.221 102.518L320.612 25.5517L315.464 20.4258L240.648 94.8402L165.831 20.4258L160.683 25.5517L238.074 102.518Z" fill="white"/>
<path opacity="0.5" fill-rule="evenodd" clip-rule="evenodd" d="M1389.7 1247.95C1391.12 1249.36 1393.43 1249.36 1394.85 1247.95L1472.24 1170.98L1467.09 1165.86L1392.28 1240.27L1317.46 1165.86L1312.31 1170.98L1389.7 1247.95Z" fill="white"/>
<path opacity="0.5" fill-rule="evenodd" clip-rule="evenodd" d="M1101.01 960.809C1102.43 962.218 1104.73 962.218 1106.15 960.809L1183.54 883.843L1178.4 878.717L1103.58 953.131L1028.76 878.717L1023.62 883.843L1101.01 960.809Z" fill="white"/>
<path opacity="0.5" fill-rule="evenodd" clip-rule="evenodd" d="M525.204 388.093C526.624 389.502 528.932 389.502 530.352 388.093L607.742 311.127L602.595 306.001L527.778 380.415L452.961 306.001L447.814 311.127L525.204 388.093Z" fill="white"/>
<path opacity="0.5" fill-rule="evenodd" clip-rule="evenodd" d="M264.943 1025.48C266.363 1024.07 268.671 1024.07 270.091 1025.48L347.481 1102.45L342.334 1107.57L267.517 1033.16L192.7 1107.57L187.553 1102.45L264.943 1025.48Z" fill="white"/>
<path opacity="0.5" fill-rule="evenodd" clip-rule="evenodd" d="M1360.45 -64.1297C1361.87 -65.5388 1364.17 -65.5388 1365.59 -64.1297L1442.99 12.8366L1437.84 17.9625L1363.02 -56.4519L1288.2 17.9625L1283.06 12.8366L1360.45 -64.1297Z" fill="white"/>
<path opacity="0.5" fill-rule="evenodd" clip-rule="evenodd" d="M1936.26 508.597C1937.68 507.188 1939.99 507.188 1941.41 508.597L2018.8 585.563L2013.65 590.689L1938.83 516.275L1864.02 590.689L1858.87 585.563L1936.26 508.597Z" fill="white"/>
<path opacity="0.5" fill-rule="evenodd" clip-rule="evenodd" d="M1647.57 221.446C1648.99 220.037 1651.29 220.037 1652.71 221.446L1730.1 298.413L1724.96 303.539L1650.14 229.124L1575.32 303.539L1570.18 298.413L1647.57 221.446Z" fill="white"/>
<path opacity="0.5" fill-rule="evenodd" clip-rule="evenodd" d="M-23.7404 738.342C-22.3204 736.933 -20.0128 736.933 -18.5928 738.342L58.7977 815.308L53.6501 820.434L-21.1666 746.02L-95.9833 820.434L-101.131 815.308L-23.7404 738.342Z" fill="white"/>
<path opacity="0.5" fill-rule="evenodd" clip-rule="evenodd" d="M264.954 1221.22C266.374 1222.63 268.682 1222.63 270.102 1221.22L347.492 1144.25L342.345 1139.13L267.528 1213.54L192.711 1139.13L187.564 1144.25L264.954 1221.22Z" fill="white"/>
<path opacity="0.5" fill-rule="evenodd" clip-rule="evenodd" d="M1360.45 131.609C1361.87 133.018 1364.17 133.018 1365.59 131.609L1442.99 54.6425L1437.84 49.5166L1363.02 123.931L1288.2 49.5166L1283.06 54.6425L1360.45 131.609Z" fill="white"/>
<path opacity="0.5" fill-rule="evenodd" clip-rule="evenodd" d="M1936.26 704.325C1937.68 705.734 1939.99 705.734 1941.41 704.325L2018.8 627.358L2013.65 622.232L1938.83 696.647L1864.02 622.232L1858.87 627.358L1936.26 704.325Z" fill="white"/>
<path opacity="0.5" fill-rule="evenodd" clip-rule="evenodd" d="M1647.57 417.185C1648.99 418.594 1651.29 418.594 1652.71 417.185L1730.1 340.219L1724.96 335.093L1650.14 409.507L1575.32 335.093L1570.18 340.219L1647.57 417.185Z" fill="white"/>
<path opacity="0.5" fill-rule="evenodd" clip-rule="evenodd" d="M-23.7404 934.08C-22.3204 935.49 -20.0128 935.49 -18.5928 934.08L58.7977 857.114L53.6501 851.988L-21.1666 926.403L-95.9833 851.988L-101.131 857.114L-23.7404 934.08Z" fill="white"/>
<path opacity="0.5" fill-rule="evenodd" clip-rule="evenodd" d="M405.946 1084.3C407.366 1085.71 409.673 1085.71 411.093 1084.3L488.484 1007.33L483.336 1002.2L408.519 1076.62L333.703 1002.2L328.555 1007.33L405.946 1084.3Z" fill="white"/>
<path opacity="0.5" fill-rule="evenodd" clip-rule="evenodd" d="M1788.56 280.272C1789.98 281.681 1792.29 281.681 1793.71 280.272L1871.1 203.306L1865.95 198.18L1791.13 272.594L1716.31 198.18L1711.17 203.306L1788.56 280.272Z" fill="white"/>
<path opacity="0.5" fill-rule="evenodd" clip-rule="evenodd" d="M117.262 797.167C118.682 798.576 120.99 798.576 122.41 797.167L199.8 720.201L194.653 715.075L119.836 789.49L45.0191 715.075L39.8716 720.201L117.262 797.167Z" fill="white"/>
<path opacity="0.5" fill-rule="evenodd" clip-rule="evenodd" d="M541.379 1222.74C542.799 1224.15 545.107 1224.15 546.527 1222.74L623.917 1145.77L618.77 1140.65L543.953 1215.06L469.136 1140.65L463.989 1145.77L541.379 1222.74Z" fill="white"/>
<path opacity="0.5" fill-rule="evenodd" clip-rule="evenodd" d="M1636.87 133.129C1638.29 134.538 1640.6 134.538 1642.02 133.129L1719.41 56.163L1714.26 51.0371L1639.45 125.452L1564.63 51.0371L1559.48 56.163L1636.87 133.129Z" fill="white"/>
<path opacity="0.5" fill-rule="evenodd" clip-rule="evenodd" d="M-34.4347 650.025C-33.0147 651.434 -30.7072 651.434 -29.2872 650.025L48.1033 573.059L42.9558 567.933L-31.8609 642.347L-106.678 567.933L-111.825 573.059L-34.4347 650.025Z" fill="white"/>
<path opacity="0.5" fill-rule="evenodd" clip-rule="evenodd" d="M1923.99 418.715C1925.41 420.124 1927.72 420.124 1929.14 418.715L2006.53 341.749L2001.38 336.623L1926.56 411.037L1851.75 336.623L1846.6 341.749L1923.99 418.715Z" fill="white"/>
<path opacity="0.5" fill-rule="evenodd" clip-rule="evenodd" d="M252.684 935.612C254.104 937.021 256.412 937.021 257.832 935.612L335.222 858.645L330.075 853.52L255.258 927.934L180.441 853.52L175.294 858.645L252.684 935.612Z" fill="white"/>
<path opacity="0.5" d="M552.639 883.997C550.576 886.039 548.091 887.071 545.206 887.071C542.311 887.071 539.848 886.05 537.807 884.019L504.348 850.579L510.549 844.443L543.165 877.041C543.997 877.873 544.696 878.305 545.273 878.339C545.839 878.305 546.549 877.862 547.392 877.029L572.009 852.665C572.886 851.788 573.329 851.089 573.329 850.568C573.296 850.002 572.863 849.303 572.031 848.471L539.415 815.874L545.672 809.683L579.131 843.123C581.173 845.165 582.171 847.639 582.116 850.557C582.093 853.43 581.073 855.871 579.054 857.879L552.65 884.008L552.639 883.997Z" fill="white"/>
<path opacity="0.5" d="M-23.1634 311.293C-25.2269 313.335 -27.7119 314.366 -30.5963 314.366C-33.4918 314.366 -35.9546 313.346 -37.9959 311.315L-71.4548 277.875L-65.2534 271.739L-32.6376 304.337C-31.8055 305.169 -31.1066 305.601 -30.5297 305.635C-29.9639 305.601 -29.2539 305.158 -28.4108 304.325L-3.79362 279.961C-2.91721 279.084 -2.47345 278.385 -2.47345 277.864C-2.50673 277.298 -2.93939 276.599 -3.77142 275.767L-36.3873 243.17L-30.1303 236.979L3.32861 270.419C5.36987 272.46 6.36832 274.935 6.31285 277.853C6.29066 280.726 5.27003 283.167 3.25095 285.175L-23.1523 311.304L-23.1634 311.293Z" fill="white"/>
<path opacity="0.5" d="M839.758 1169.58C837.695 1171.63 835.21 1172.66 832.326 1172.66C829.43 1172.66 826.967 1171.64 824.926 1169.61L791.467 1136.17L797.669 1130.03L830.284 1162.63C831.116 1163.46 831.815 1163.89 832.392 1163.93C832.958 1163.89 833.668 1163.45 834.511 1162.62L859.128 1138.25C860.005 1137.37 860.448 1136.68 860.448 1136.15C860.415 1135.59 859.982 1134.89 859.15 1134.06L826.535 1101.46L832.792 1095.27L866.25 1128.71C868.292 1130.75 869.29 1133.23 869.235 1136.14C869.213 1139.02 868.192 1141.46 866.173 1143.47L839.77 1169.59L839.758 1169.58Z" fill="white"/>
<path opacity="0.5" d="M1936.16 79.0744C1934.1 81.1159 1931.61 82.1477 1928.73 82.1477C1925.83 82.1477 1923.37 81.1269 1921.33 79.0965L1887.87 45.6561L1894.07 39.5205L1926.69 72.1178C1927.52 72.9499 1928.22 73.3826 1928.79 73.4159C1929.36 73.3826 1930.07 72.9388 1930.91 72.1067L1955.53 47.742C1956.41 46.8655 1956.85 46.1665 1956.85 45.645C1956.82 45.0792 1956.38 44.3802 1955.55 43.548L1922.94 10.9508L1929.19 4.75977L1962.65 38.2002C1964.69 40.2417 1965.69 42.7159 1965.64 45.6339C1965.61 48.5075 1964.59 50.9484 1962.57 52.9566L1936.17 79.0855L1936.16 79.0744Z" fill="white"/>
<path opacity="0.5" d="M263.956 596.869C261.893 598.911 259.407 599.943 256.523 599.943C253.628 599.943 251.165 598.922 249.124 596.891L215.665 563.451L221.866 557.315L254.482 589.913C255.314 590.745 256.013 591.178 256.59 591.211C257.155 591.178 257.865 590.734 258.709 589.902L283.326 565.537C284.202 564.66 284.646 563.961 284.646 563.44C284.613 562.874 284.18 562.175 283.348 561.343L250.732 528.746L256.989 522.555L290.448 555.995C292.489 558.037 293.488 560.511 293.432 563.429C293.41 566.302 292.389 568.743 290.37 570.752L263.967 596.88L263.956 596.869Z" fill="white"/>
<path opacity="0.5" d="M689.093 1019.72C687.03 1021.76 684.545 1022.8 681.66 1022.8C678.765 1022.8 676.302 1021.78 674.261 1019.74L640.802 986.305L647.003 980.169L679.619 1012.77C680.451 1013.6 681.15 1014.03 681.727 1014.06C682.293 1014.03 683.003 1013.59 683.846 1012.76L708.463 988.39C709.339 987.514 709.783 986.815 709.783 986.293C709.75 985.728 709.317 985.029 708.485 984.197L675.869 951.599L682.126 945.408L715.585 978.849C717.626 980.89 718.625 983.364 718.569 986.282C718.547 989.156 717.527 991.597 715.508 993.605L689.104 1019.73L689.093 1019.72Z" fill="white"/>
<path opacity="0.5" d="M113.29 447.019C111.227 449.06 108.742 450.092 105.858 450.092C102.962 450.092 100.499 449.071 98.458 447.041L64.999 413.6L71.2005 407.465L103.816 440.062C104.648 440.894 105.347 441.327 105.924 441.36C106.49 441.327 107.2 440.883 108.043 440.051L132.66 415.686C133.537 414.81 133.98 414.111 133.98 413.589C133.947 413.023 133.514 412.324 132.682 411.492L100.067 378.895L106.324 372.704L139.782 406.145C141.824 408.186 142.822 410.66 142.767 413.578C142.745 416.452 141.724 418.893 139.705 420.901L113.302 447.03L113.29 447.019Z" fill="white"/>
<path opacity="0.5" d="M400.41 732.595C398.346 734.636 395.861 735.668 392.977 735.668C390.081 735.668 387.619 734.647 385.577 732.617L352.118 699.177L358.32 693.041L390.936 725.638C391.768 726.47 392.467 726.903 393.044 726.936C393.609 726.903 394.319 726.459 395.162 725.627L419.78 701.262C420.656 700.386 421.1 699.687 421.1 699.165C421.066 698.6 420.634 697.901 419.802 697.069L387.186 664.471L393.443 658.28L426.902 691.721C428.943 693.762 429.942 696.236 429.886 699.154C429.864 702.028 428.843 704.469 426.824 706.477L400.421 732.606L400.41 732.595Z" fill="white"/>
<path opacity="0.5" d="M686.73 750.635C684.667 752.676 682.182 753.708 679.298 753.708C676.402 753.708 673.939 752.687 671.898 750.657L638.439 717.217L644.64 711.081L677.256 743.678C678.088 744.51 678.787 744.943 679.364 744.976C679.93 744.943 680.64 744.499 681.483 743.667L706.1 719.302C706.977 718.426 707.42 717.727 707.42 717.206C707.387 716.64 706.954 715.941 706.122 715.109L673.507 682.511L679.763 676.32L713.222 709.761C715.264 711.802 716.262 714.276 716.207 717.194C716.184 720.068 715.164 722.509 713.145 724.517L686.741 750.646L686.73 750.635Z" fill="white"/>
<path opacity="0.5" d="M110.928 177.92C108.864 179.962 106.379 180.993 103.495 180.993C100.599 180.993 98.1365 179.973 96.0952 177.942L62.6362 144.502L68.8377 138.366L101.454 170.963C102.286 171.796 102.984 172.228 103.561 172.262C104.127 172.228 104.837 171.784 105.68 170.952L130.297 146.588C131.174 145.711 131.618 145.012 131.618 144.491C131.584 143.925 131.152 143.226 130.32 142.394L97.7038 109.797L103.961 103.605L137.42 137.046C139.461 139.087 140.459 141.562 140.404 144.48C140.382 147.353 139.361 149.794 137.342 151.802L110.939 177.931L110.928 177.92Z" fill="white"/>
<path opacity="0.5" d="M973.85 1036.21C971.786 1038.25 969.301 1039.28 966.417 1039.28C963.521 1039.28 961.058 1038.26 959.017 1036.23L925.558 1002.79L931.76 996.656L964.375 1029.25C965.207 1030.09 965.906 1030.52 966.483 1030.55C967.049 1030.52 967.759 1030.07 968.602 1029.24L993.219 1004.88C994.096 1004 994.539 1003.3 994.539 1002.78C994.506 1002.21 994.074 1001.52 993.242 1000.68L960.626 968.087L966.883 961.896L1000.34 995.336C1002.38 997.377 1003.38 999.852 1003.33 1002.77C1003.3 1005.64 1002.28 1008.08 1000.26 1010.09L973.861 1036.22L973.85 1036.21Z" fill="white"/>
<path opacity="0.5" d="M398.047 463.495C395.983 465.537 393.498 466.569 390.614 466.569C387.718 466.569 385.256 465.548 383.214 463.517L349.755 430.077L355.957 423.941L388.573 456.539C389.405 457.371 390.104 457.804 390.68 457.837C391.246 457.804 391.956 457.36 392.799 456.528L417.417 432.163C418.293 431.286 418.737 430.587 418.737 430.066C418.703 429.5 418.271 428.801 417.439 427.969L384.823 395.372L391.08 389.181L424.539 422.621C426.58 424.663 427.579 427.137 427.523 430.055C427.501 432.928 426.48 435.369 424.461 437.378L398.058 463.506L398.047 463.495Z" fill="white"/>
<path opacity="0.5" d="M823.184 886.361C821.121 888.403 818.636 889.435 815.751 889.435C812.856 889.435 810.393 888.414 808.352 886.384L774.893 852.943L781.094 846.808L813.71 879.405C814.542 880.237 815.241 880.67 815.818 880.703C816.384 880.67 817.094 880.226 817.937 879.394L842.554 855.029C843.43 854.153 843.874 853.454 843.874 852.932C843.841 852.366 843.408 851.667 842.576 850.835L809.96 818.238L816.217 812.047L849.676 845.487C851.718 847.529 852.716 850.003 852.66 852.921C852.638 855.795 851.618 858.236 849.599 860.244L823.195 886.373L823.184 886.361Z" fill="white"/>
<path opacity="0.5" d="M247.382 313.646C245.318 315.687 242.833 316.719 239.949 316.719C237.053 316.719 234.591 315.698 232.549 313.668L199.09 280.227L205.292 274.092L237.908 306.689C238.74 307.521 239.439 307.954 240.015 307.987C240.581 307.954 241.291 307.51 242.134 306.678L266.752 282.313C267.628 281.437 268.072 280.738 268.072 280.216C268.038 279.65 267.606 278.951 266.774 278.119L234.158 245.522L240.415 239.331L273.874 272.772C275.915 274.813 276.913 277.287 276.858 280.205C276.836 283.079 275.815 285.52 273.796 287.528L247.393 313.657L247.382 313.646Z" fill="white"/>
<path opacity="0.5" d="M1110.31 1171.94C1108.25 1173.98 1105.77 1175.01 1102.88 1175.01C1099.99 1175.01 1097.52 1173.99 1095.48 1171.96L1062.02 1138.52L1068.22 1132.38L1100.84 1164.98C1101.67 1165.81 1102.37 1166.24 1102.95 1166.28C1103.51 1166.24 1104.22 1165.8 1105.07 1164.97L1129.68 1140.6C1130.56 1139.73 1131 1139.03 1131 1138.51C1130.97 1137.94 1130.54 1137.24 1129.71 1136.41L1097.09 1103.81L1103.35 1097.62L1136.81 1131.06C1138.85 1133.1 1139.85 1135.58 1139.79 1138.5C1139.77 1141.37 1138.75 1143.81 1136.73 1145.82L1110.33 1171.95L1110.31 1171.94Z" fill="white"/>
<path opacity="0.5" d="M534.501 599.221C532.437 601.262 529.952 602.294 527.068 602.294C524.172 602.294 521.71 601.273 519.668 599.243L486.209 565.803L492.411 559.667L525.027 592.264C525.859 593.096 526.558 593.529 527.135 593.562C527.7 593.529 528.41 593.085 529.253 592.253L553.871 567.889C554.747 567.012 555.191 566.313 555.191 565.792C555.158 565.226 554.725 564.527 553.893 563.695L521.277 531.097L527.534 524.906L560.993 558.347C563.034 560.388 564.033 562.862 563.977 565.78C563.955 568.654 562.934 571.095 560.915 573.103L534.512 599.232L534.501 599.221Z" fill="white"/>
<path opacity="0.5" d="M825.558 612.546C823.495 614.588 821.01 615.619 818.126 615.619C815.23 615.619 812.767 614.599 810.726 612.568L777.267 579.128L783.468 572.992L816.084 605.589C816.916 606.422 817.615 606.854 818.192 606.888C818.758 606.854 819.468 606.41 820.311 605.578L844.928 581.214C845.805 580.337 846.248 579.638 846.248 579.117C846.215 578.551 845.783 577.852 844.951 577.02L812.335 544.422L818.592 538.231L852.051 571.672C854.092 573.713 855.09 576.188 855.035 579.106C855.013 581.979 853.992 584.42 851.973 586.428L825.57 612.557L825.558 612.546Z" fill="white"/>
<path opacity="0.5" d="M249.745 39.8429C247.681 41.8844 245.196 42.9162 242.312 42.9162C239.416 42.9162 236.953 41.8955 234.912 39.8651L201.453 6.42463L207.655 0.289078L240.27 32.8863C241.102 33.7184 241.801 34.1511 242.378 34.1844C242.944 34.1511 243.654 33.7074 244.497 32.8752L269.114 8.51051C269.991 7.634 270.435 6.93501 270.435 6.41354C270.401 5.8477 269.969 5.14871 269.137 4.31658L236.521 -28.2806L242.778 -34.4717L276.237 -1.03122C278.278 1.01027 279.276 3.48446 279.221 6.40245C279.199 9.27607 278.178 11.717 276.159 13.7252L249.756 39.854L249.745 39.8429Z" fill="white"/>
<path opacity="0.5" d="M1401.37 1185.27C1399.31 1187.31 1396.82 1188.35 1393.94 1188.35C1391.04 1188.35 1388.58 1187.33 1386.54 1185.29L1353.08 1151.85L1359.28 1145.72L1391.9 1178.32C1392.73 1179.15 1393.43 1179.58 1394.01 1179.61C1394.57 1179.58 1395.28 1179.14 1396.12 1178.3L1420.74 1153.94C1421.62 1153.06 1422.06 1152.36 1422.06 1151.84C1422.03 1151.28 1421.6 1150.58 1420.76 1149.75L1388.15 1117.15L1394.41 1110.96L1427.86 1144.4C1429.91 1146.44 1430.9 1148.91 1430.85 1151.83C1430.83 1154.71 1429.81 1157.15 1427.79 1159.15L1401.38 1185.28L1401.37 1185.27Z" fill="white"/>
<path opacity="0.5" d="M1112.68 898.132C1110.61 900.173 1108.13 901.205 1105.24 901.205C1102.35 901.205 1099.89 900.185 1097.85 898.154L1064.39 864.714L1070.59 858.578L1103.2 891.175C1104.04 892.007 1104.73 892.44 1105.31 892.474C1105.88 892.44 1106.59 891.996 1107.43 891.164L1132.05 866.8C1132.92 865.923 1133.37 865.224 1133.37 864.703C1133.33 864.137 1132.9 863.438 1132.07 862.606L1099.45 830.008L1105.71 823.817L1139.17 857.258C1141.21 859.299 1142.21 861.773 1142.15 864.691C1142.13 867.565 1141.11 870.006 1139.09 872.014L1112.69 898.143L1112.68 898.132Z" fill="white"/>
<path opacity="0.5" d="M536.875 325.417C534.811 327.459 532.326 328.49 529.442 328.49C526.547 328.49 524.084 327.47 522.042 325.439L488.583 291.999L494.785 285.863L527.401 318.461C528.233 319.293 528.932 319.725 529.509 319.759C530.074 319.725 530.784 319.282 531.628 318.449L556.245 294.085C557.121 293.208 557.565 292.509 557.565 291.988C557.532 291.422 557.099 290.723 556.267 289.891L523.651 257.294L529.908 251.103L563.367 284.543C565.408 286.584 566.407 289.059 566.351 291.977C566.329 294.85 565.308 297.291 563.289 299.299L536.886 325.428L536.875 325.417Z" fill="white"/>
<path opacity="0.5" d="M962.012 748.273C959.949 750.314 957.464 751.346 954.58 751.346C951.684 751.346 949.221 750.325 947.18 748.295L913.721 714.854L919.922 708.719L952.538 741.316C953.37 742.148 954.069 742.581 954.646 742.614C955.212 742.581 955.922 742.137 956.765 741.305L981.382 716.94C982.259 716.064 982.702 715.365 982.702 714.843C982.669 714.277 982.236 713.578 981.404 712.746L948.789 680.149L955.045 673.958L988.504 707.398C990.546 709.44 991.544 711.914 991.489 714.832C991.466 717.706 990.446 720.147 988.427 722.155L962.023 748.284L962.012 748.273Z" fill="white"/>
<path opacity="0.5" d="M386.21 175.568C384.146 177.609 381.661 178.641 378.777 178.641C375.881 178.641 373.418 177.62 371.377 175.59L337.918 142.149L344.12 136.014L376.735 168.611C377.568 169.443 378.266 169.876 378.843 169.909C379.409 169.876 380.119 169.432 380.962 168.6L405.579 144.235C406.456 143.359 406.9 142.66 406.9 142.138C406.866 141.572 406.434 140.873 405.602 140.041L372.986 107.444L379.243 101.253L412.702 134.693C414.743 136.735 415.741 139.209 415.686 142.127C415.664 145.001 414.643 147.442 412.624 149.45L386.221 175.579L386.21 175.568Z" fill="white"/>
<path opacity="0.5" d="M1249.13 1033.86C1247.07 1035.9 1244.58 1036.93 1241.7 1036.93C1238.8 1036.93 1236.34 1035.91 1234.3 1033.88L1200.84 1000.44L1207.04 994.304L1239.66 1026.9C1240.49 1027.73 1241.19 1028.17 1241.76 1028.2C1242.33 1028.17 1243.04 1027.72 1243.88 1026.89L1268.5 1002.53C1269.38 1001.65 1269.82 1000.95 1269.82 1000.43C1269.79 999.862 1269.36 999.163 1268.52 998.331L1235.91 965.734L1242.16 959.543L1275.62 992.983C1277.66 995.025 1278.66 997.499 1278.61 1000.42C1278.59 1003.29 1277.56 1005.73 1275.55 1007.74L1249.14 1033.87L1249.13 1033.86Z" fill="white"/>
<path opacity="0.5" d="M673.329 461.143C671.266 463.184 668.781 464.216 665.896 464.216C663.001 464.216 660.538 463.195 658.497 461.165L625.038 427.724L631.239 421.589L663.855 454.186C664.687 455.018 665.386 455.451 665.963 455.484C666.529 455.451 667.239 455.007 668.082 454.175L692.699 429.81C693.575 428.934 694.019 428.235 694.019 427.713C693.986 427.148 693.553 426.449 692.721 425.616L660.105 393.019L666.362 386.828L699.821 420.269C701.862 422.31 702.861 424.784 702.805 427.702C702.783 430.576 701.762 433.017 699.743 435.025L673.34 461.154L673.329 461.143Z" fill="white"/>
<path opacity="0.5" d="M960.437 478.397C958.373 480.438 955.888 481.47 953.004 481.47C950.109 481.47 947.646 480.449 945.604 478.419L912.146 444.978L918.347 438.843L950.963 471.44C951.795 472.272 952.494 472.705 953.071 472.738C953.636 472.705 954.346 472.261 955.19 471.429L979.807 447.064C980.683 446.188 981.127 445.489 981.127 444.967C981.094 444.401 980.661 443.702 979.829 442.87L947.213 410.273L953.47 404.082L986.929 437.523C988.97 439.564 989.969 442.038 989.913 444.956C989.891 447.83 988.87 450.271 986.851 452.279L960.448 478.408L960.437 478.397Z" fill="white"/>
<path opacity="0.5" d="M1536.25 1051.11C1534.19 1053.15 1531.7 1054.18 1528.82 1054.18C1525.92 1054.18 1523.46 1053.16 1521.42 1051.13L1487.96 1017.69L1494.16 1011.56L1526.78 1044.15C1527.61 1044.99 1528.31 1045.42 1528.88 1045.45C1529.45 1045.42 1530.16 1044.97 1531 1044.14L1555.62 1019.78C1556.5 1018.9 1556.94 1018.2 1556.94 1017.68C1556.91 1017.12 1556.47 1016.42 1555.64 1015.58L1523.03 982.987L1529.28 976.796L1562.74 1010.24C1564.78 1012.28 1565.78 1014.75 1565.73 1017.67C1565.7 1020.54 1564.68 1022.98 1562.67 1024.99L1536.26 1051.12L1536.25 1051.11Z" fill="white"/>
<path opacity="0.5" d="M1247.56 763.971C1245.49 766.012 1243.01 767.044 1240.12 767.044C1237.23 767.044 1234.76 766.023 1232.72 763.993L1199.26 730.553L1205.47 724.417L1238.08 757.014C1238.91 757.846 1239.61 758.279 1240.19 758.312C1240.76 758.279 1241.47 757.835 1242.31 757.003L1266.93 732.638C1267.8 731.762 1268.25 731.063 1268.25 730.541C1268.21 729.976 1267.78 729.277 1266.95 728.444L1234.33 695.847L1240.59 689.656L1274.05 723.097C1276.09 725.138 1277.09 727.612 1277.03 730.53C1277.01 733.404 1275.99 735.845 1273.97 737.853L1247.57 763.982L1247.56 763.971Z" fill="white"/>
<path opacity="0.5" d="M671.754 191.256C669.69 193.298 667.205 194.329 664.321 194.329C661.425 194.329 658.962 193.309 656.921 191.278L623.462 157.838L629.664 151.702L662.279 184.299C663.111 185.132 663.81 185.564 664.387 185.598C664.953 185.564 665.663 185.12 666.506 184.288L691.123 159.924C692 159.047 692.444 158.348 692.444 157.827C692.41 157.261 691.978 156.562 691.146 155.73L658.53 123.132L664.787 116.941L698.246 150.382C700.287 152.423 701.285 154.898 701.23 157.816C701.208 160.689 700.187 163.13 698.168 165.138L671.765 191.267L671.754 191.256Z" fill="white"/>
<path opacity="0.5" d="M1096.89 614.122C1094.83 616.164 1092.34 617.196 1089.46 617.196C1086.56 617.196 1084.1 616.175 1082.06 614.144L1048.6 580.704L1054.8 574.568L1087.42 607.166C1088.25 607.998 1088.95 608.43 1089.52 608.464C1090.09 608.43 1090.8 607.987 1091.64 607.154L1116.26 582.79C1117.14 581.913 1117.58 581.214 1117.58 580.693C1117.55 580.127 1117.12 579.428 1116.28 578.596L1083.67 545.999L1089.92 539.808L1123.38 573.248C1125.42 575.29 1126.42 577.764 1126.37 580.682C1126.35 583.555 1125.32 585.996 1123.31 588.004L1096.9 614.133L1096.89 614.122Z" fill="white"/>
<path opacity="0.5" d="M521.088 41.4064C519.025 43.4479 516.54 44.4797 513.655 44.4797C510.76 44.4797 508.297 43.459 506.256 41.4286L472.797 7.98812L478.998 1.85257L511.614 34.4498C512.446 35.2819 513.145 35.7146 513.722 35.7479C514.288 35.7146 514.998 35.2708 515.841 34.4387L540.458 10.074C541.334 9.19749 541.778 8.4985 541.778 7.97704C541.745 7.41119 541.312 6.7122 540.48 5.88007L507.864 -26.7172L514.121 -32.9082L547.58 0.532253C549.622 2.57374 550.62 5.04793 550.565 7.96593C550.542 10.8395 549.522 13.2805 547.503 15.2887L521.099 41.4175L521.088 41.4064Z" fill="white"/>
<path opacity="0.5" d="M1672.7 1186.84C1670.64 1188.88 1668.16 1189.91 1665.27 1189.91C1662.38 1189.91 1659.91 1188.89 1657.87 1186.86L1624.41 1153.42L1630.61 1147.28L1663.23 1179.88C1664.06 1180.71 1664.76 1181.14 1665.34 1181.18C1665.9 1181.14 1666.61 1180.7 1667.46 1179.87L1692.07 1155.5C1692.95 1154.63 1693.39 1153.93 1693.39 1153.41C1693.36 1152.84 1692.93 1152.14 1692.1 1151.31L1659.48 1118.71L1665.74 1112.52L1699.2 1145.96C1701.24 1148 1702.24 1150.48 1702.18 1153.4C1702.16 1156.27 1701.14 1158.71 1699.12 1160.72L1672.72 1186.85L1672.7 1186.84Z" fill="white"/>
<path opacity="0.5" d="M1384.01 899.696C1381.95 901.738 1379.46 902.77 1376.58 902.77C1373.68 902.77 1371.22 901.749 1369.18 899.719L1335.72 866.278L1341.92 860.143L1374.54 892.74C1375.37 893.572 1376.07 894.005 1376.64 894.038C1377.21 894.005 1377.92 893.561 1378.76 892.729L1403.38 868.364C1404.26 867.488 1404.7 866.789 1404.7 866.267C1404.67 865.701 1404.23 865.002 1403.4 864.17L1370.79 831.573L1377.04 825.382L1410.5 858.822C1412.54 860.864 1413.54 863.338 1413.49 866.256C1413.46 869.13 1412.44 871.57 1410.42 873.579L1384.02 899.708L1384.01 899.696Z" fill="white"/>
<path opacity="0.5" d="M808.208 326.982C806.144 329.023 803.659 330.055 800.775 330.055C797.879 330.055 795.417 329.034 793.375 327.004L759.916 293.563L766.118 287.428L798.734 320.025C799.566 320.857 800.265 321.29 800.841 321.323C801.407 321.29 802.117 320.846 802.96 320.014L827.577 295.649C828.454 294.773 828.898 294.074 828.898 293.552C828.864 292.986 828.432 292.287 827.6 291.455L794.984 258.858L801.241 252.667L834.7 286.107C836.741 288.149 837.739 290.623 837.684 293.541C837.662 296.415 836.641 298.856 834.622 300.864L808.219 326.993L808.208 326.982Z" fill="white"/>
<path opacity="0.5" d="M1096.1 343.458C1094.04 345.5 1091.55 346.531 1088.67 346.531C1085.78 346.531 1083.31 345.511 1081.27 343.48L1047.81 310.04L1054.01 303.904L1086.63 336.502C1087.46 337.334 1088.16 337.766 1088.74 337.8C1089.3 337.766 1090.01 337.323 1090.86 336.49L1115.47 312.126C1116.35 311.249 1116.79 310.55 1116.79 310.029C1116.76 309.463 1116.33 308.764 1115.5 307.932L1082.88 275.335L1089.14 269.144L1122.6 302.584C1124.64 304.626 1125.64 307.1 1125.58 310.018C1125.56 312.891 1124.54 315.332 1122.52 317.34L1096.11 343.469L1096.1 343.458Z" fill="white"/>
<path opacity="0.5" d="M1671.92 916.172C1669.85 918.213 1667.37 919.245 1664.48 919.245C1661.59 919.245 1659.13 918.225 1657.08 916.194L1623.63 882.754L1629.83 876.618L1662.44 909.215C1663.28 910.048 1663.97 910.48 1664.55 910.514C1665.12 910.48 1665.83 910.036 1666.67 909.204L1691.29 884.84C1692.16 883.963 1692.61 883.264 1692.61 882.743C1692.57 882.177 1692.14 881.478 1691.31 880.646L1658.69 848.048L1664.95 841.857L1698.41 875.298C1700.45 877.339 1701.45 879.814 1701.39 882.732C1701.37 885.605 1700.35 888.046 1698.33 890.054L1671.93 916.183L1671.92 916.172Z" fill="white"/>
<path opacity="0.5" d="M1383.22 629.033C1381.16 631.075 1378.67 632.107 1375.79 632.107C1372.89 632.107 1370.43 631.086 1368.39 629.056L1334.93 595.615L1341.13 589.48L1373.75 622.077C1374.58 622.909 1375.28 623.342 1375.86 623.375C1376.42 623.342 1377.13 622.898 1377.98 622.066L1402.59 597.701C1403.47 596.824 1403.91 596.125 1403.91 595.604C1403.88 595.038 1403.45 594.339 1402.61 593.507L1370 560.91L1376.26 554.719L1409.71 588.159C1411.76 590.201 1412.75 592.675 1412.7 595.593C1412.68 598.467 1411.66 600.907 1409.64 602.916L1383.23 629.044L1383.22 629.033Z" fill="white"/>
<path opacity="0.5" d="M807.42 56.3185C805.356 58.36 802.871 59.3918 799.987 59.3918C797.091 59.3918 794.629 58.3711 792.587 56.3407L759.128 22.9002L765.33 16.7647L797.946 49.3619C798.778 50.194 799.477 50.6267 800.054 50.66C800.619 50.6267 801.329 50.1829 802.173 49.3508L826.79 24.9861C827.666 24.1096 828.11 23.4106 828.11 22.8891C828.077 22.3233 827.644 21.6243 826.812 20.7922L794.196 -11.8051L800.453 -17.9961L833.912 15.4444C835.953 17.4859 836.952 19.96 836.896 22.878C836.874 25.7517 835.853 28.1926 833.834 30.2008L807.431 56.3296L807.42 56.3185Z" fill="white"/>
<path opacity="0.5" d="M1959.04 1201.75C1956.97 1203.79 1954.49 1204.82 1951.6 1204.82C1948.71 1204.82 1946.25 1203.8 1944.2 1201.77L1910.75 1168.33L1916.95 1162.19L1949.56 1194.79C1950.39 1195.62 1951.09 1196.06 1951.67 1196.09C1952.24 1196.06 1952.95 1195.61 1953.79 1194.78L1978.41 1170.42C1979.28 1169.54 1979.73 1168.84 1979.73 1168.32C1979.69 1167.75 1979.26 1167.05 1978.43 1166.22L1945.81 1133.62L1952.07 1127.43L1985.53 1160.87C1987.57 1162.92 1988.57 1165.39 1988.51 1168.31C1988.49 1171.18 1987.47 1173.62 1985.45 1175.63L1959.05 1201.76L1959.04 1201.75Z" fill="white"/>
<path opacity="0.5" d="M1232.57 479.184C1230.51 481.225 1228.02 482.257 1225.14 482.257C1222.24 482.257 1219.78 481.236 1217.74 479.206L1184.28 445.766L1190.48 439.63L1223.09 472.227C1223.93 473.059 1224.63 473.492 1225.2 473.525C1225.77 473.492 1226.48 473.048 1227.32 472.216L1251.94 447.851C1252.81 446.975 1253.26 446.276 1253.26 445.754C1253.23 445.189 1252.79 444.49 1251.96 443.657L1219.34 411.06L1225.6 404.869L1259.06 438.31C1261.1 440.351 1262.1 442.825 1262.05 445.743C1262.02 448.617 1261 451.058 1258.98 453.066L1232.58 479.195L1232.57 479.184Z" fill="white"/>
<path opacity="0.5" d="M1808.37 1051.9C1806.31 1053.94 1803.82 1054.97 1800.94 1054.97C1798.04 1054.97 1795.58 1053.95 1793.54 1051.92L1760.08 1018.48L1766.28 1012.34L1798.9 1044.94C1799.73 1045.77 1800.43 1046.21 1801 1046.24C1801.57 1046.21 1802.28 1045.76 1803.12 1044.93L1827.74 1020.57C1828.62 1019.69 1829.06 1018.99 1829.06 1018.47C1829.03 1017.9 1828.6 1017.2 1827.76 1016.37L1795.15 983.775L1801.4 977.584L1834.86 1011.02C1836.9 1013.07 1837.9 1015.54 1837.85 1018.46C1837.83 1021.33 1836.8 1023.77 1834.79 1025.78L1808.38 1051.91L1808.37 1051.9Z" fill="white"/>
<path opacity="0.5" d="M1519.69 764.759C1517.62 766.8 1515.14 767.832 1512.26 767.832C1509.36 767.832 1506.9 766.812 1504.86 764.781L1471.4 731.341L1477.6 725.205L1510.21 757.802C1511.05 758.634 1511.74 759.067 1512.32 759.1C1512.89 759.067 1513.6 758.623 1514.44 757.791L1539.06 733.427C1539.93 732.55 1540.38 731.851 1540.38 731.33C1540.34 730.764 1539.91 730.065 1539.08 729.233L1506.46 696.635L1512.72 690.444L1546.18 723.885C1548.22 725.926 1549.22 728.401 1549.16 731.319C1549.14 734.192 1548.12 736.633 1546.1 738.641L1519.7 764.77L1519.69 764.759Z" fill="white"/>
<path opacity="0.5" d="M943.874 192.044C941.811 194.086 939.325 195.117 936.441 195.117C933.546 195.117 931.083 194.097 929.042 192.066L895.583 158.626L901.784 152.49L934.4 185.088C935.232 185.92 935.931 186.352 936.508 186.386C937.073 186.352 937.783 185.909 938.627 185.076L963.244 160.712C964.12 159.835 964.564 159.136 964.564 158.615C964.531 158.049 964.098 157.35 963.266 156.518L930.65 123.921L936.907 117.729L970.366 151.17C972.407 153.211 973.406 155.686 973.35 158.604C973.328 161.477 972.307 163.918 970.288 165.926L943.885 192.055L943.874 192.044Z" fill="white"/>
<path opacity="0.5" d="M140.226 1294.2C138.163 1296.24 135.678 1297.28 132.794 1297.28C129.898 1297.28 127.435 1296.26 125.394 1294.23L91.9351 1260.78L98.1365 1254.65L130.752 1287.25C131.584 1288.08 132.283 1288.51 132.86 1288.54C133.426 1288.51 134.136 1288.07 134.979 1287.24L159.596 1262.87C160.473 1261.99 160.916 1261.3 160.916 1260.77C160.883 1260.21 160.451 1259.51 159.618 1258.68L127.003 1226.08L133.26 1219.89L166.719 1253.33C168.76 1255.37 169.758 1257.84 169.703 1260.76C169.681 1263.64 168.66 1266.08 166.641 1268.09L140.238 1294.21L140.226 1294.2Z" fill="white"/>
<path opacity="0.5" d="M1235.72 204.593C1233.66 206.634 1231.17 207.666 1228.29 207.666C1225.39 207.666 1222.93 206.645 1220.89 204.615L1187.43 171.175L1193.63 165.039L1226.25 197.636C1227.08 198.468 1227.78 198.901 1228.35 198.934C1228.92 198.901 1229.63 198.457 1230.47 197.625L1255.09 173.261C1255.97 172.384 1256.41 171.685 1256.41 171.164C1256.38 170.598 1255.94 169.899 1255.11 169.067L1222.5 136.469L1228.75 130.278L1262.21 163.719C1264.25 165.76 1265.25 168.234 1265.2 171.152C1265.17 174.026 1264.15 176.467 1262.13 178.475L1235.73 204.604L1235.72 204.593Z" fill="white"/>
<path opacity="0.5" d="M1811.53 777.308C1809.47 779.349 1806.98 780.381 1804.1 780.381C1801.2 780.381 1798.74 779.36 1796.7 777.33L1763.24 743.889L1769.44 737.754L1802.06 770.351C1802.89 771.183 1803.59 771.616 1804.17 771.649C1804.73 771.616 1805.44 771.172 1806.29 770.34L1830.9 745.975C1831.78 745.099 1832.22 744.4 1832.22 743.878C1832.19 743.313 1831.76 742.614 1830.92 741.781L1798.31 709.184L1804.57 702.993L1838.02 736.434C1840.07 738.475 1841.06 740.949 1841.01 743.867C1840.99 746.741 1839.97 749.182 1837.95 751.19L1811.54 777.319L1811.53 777.308Z" fill="white"/>
<path opacity="0.5" d="M1522.84 490.168C1520.77 492.21 1518.29 493.241 1515.41 493.241C1512.51 493.241 1510.05 492.221 1508.01 490.19L1474.55 456.75L1480.75 450.614L1513.36 483.212C1514.2 484.044 1514.9 484.476 1515.47 484.51C1516.04 484.476 1516.75 484.033 1517.59 483.2L1542.21 458.836C1543.08 457.959 1543.53 457.26 1543.53 456.739C1543.49 456.173 1543.06 455.474 1542.23 454.642L1509.61 422.045L1515.87 415.854L1549.33 449.294C1551.37 451.335 1552.37 453.81 1552.31 456.728C1552.29 459.601 1551.27 462.042 1549.25 464.05L1522.85 490.179L1522.84 490.168Z" fill="white"/>
<path opacity="0.5" d="M1372.17 340.319C1370.11 342.36 1367.62 343.392 1364.74 343.392C1361.84 343.392 1359.38 342.371 1357.34 340.341L1323.88 306.9L1330.08 300.765L1362.7 333.362C1363.53 334.194 1364.23 334.627 1364.81 334.66C1365.37 334.627 1366.08 334.183 1366.93 333.351L1391.54 308.986C1392.42 308.11 1392.86 307.411 1392.86 306.889C1392.83 306.323 1392.4 305.624 1391.57 304.792L1358.95 272.195L1365.21 266.004L1398.67 299.444C1400.71 301.486 1401.7 303.96 1401.65 306.878C1401.63 309.752 1400.61 312.193 1398.59 314.201L1372.18 340.33L1372.17 340.319Z" fill="white"/>
<path opacity="0.5" d="M1947.99 913.033C1945.92 915.075 1943.44 916.107 1940.55 916.107C1937.66 916.107 1935.2 915.086 1933.15 913.056L1899.7 879.615L1905.9 873.48L1938.51 906.077C1939.34 906.909 1940.04 907.342 1940.62 907.375C1941.19 907.342 1941.9 906.898 1942.74 906.066L1967.36 881.701C1968.23 880.824 1968.68 880.125 1968.68 879.604C1968.64 879.038 1968.21 878.339 1967.38 877.507L1934.76 844.91L1941.02 838.719L1974.48 872.159C1976.52 874.201 1977.52 876.675 1977.46 879.593C1977.44 882.467 1976.42 884.907 1974.4 886.916L1948 913.044L1947.99 913.033Z" fill="white"/>
<path opacity="0.5" d="M1659.3 625.894C1657.24 627.935 1654.76 628.967 1651.87 628.967C1648.98 628.967 1646.51 627.946 1644.47 625.916L1611.01 592.475L1617.21 586.34L1649.83 618.937C1650.66 619.769 1651.36 620.202 1651.94 620.235C1652.5 620.202 1653.21 619.758 1654.06 618.926L1678.67 594.561C1679.55 593.685 1679.99 592.986 1679.99 592.464C1679.96 591.898 1679.53 591.199 1678.7 590.367L1646.08 557.77L1652.34 551.579L1685.8 585.02C1687.84 587.061 1688.84 589.535 1688.78 592.453C1688.76 595.327 1687.74 597.768 1685.72 599.776L1659.31 625.905L1659.3 625.894Z" fill="white"/>
<path opacity="0.5" d="M-12.003 1142.79C-14.0665 1144.83 -16.5515 1145.86 -19.4359 1145.86C-22.3314 1145.86 -24.7942 1144.84 -26.8355 1142.81L-60.2944 1109.37L-54.093 1103.24L-21.4772 1135.83C-20.6451 1136.66 -19.9462 1137.1 -19.3693 1137.13C-18.8035 1137.1 -18.0935 1136.65 -17.2504 1135.82L7.36678 1111.46C8.24319 1110.58 8.68695 1109.88 8.68695 1109.36C8.65367 1108.79 8.22101 1108.09 7.38898 1107.26L-25.2269 1074.67L-18.9699 1068.47L14.489 1101.92C16.5303 1103.96 17.5287 1106.43 17.4733 1109.35C17.4511 1112.22 16.4304 1114.66 14.4114 1116.67L-11.9919 1142.8L-12.003 1142.79Z" fill="white"/>
<path opacity="0.5" d="M1083.49 53.1788C1081.43 55.2203 1078.94 56.2522 1076.06 56.2522C1073.16 56.2522 1070.7 55.2314 1068.66 53.201L1035.2 19.7606L1041.4 13.625L1074.02 46.2223C1074.85 47.0544 1075.55 47.4871 1076.12 47.5204C1076.69 47.4871 1077.4 47.0433 1078.24 46.2112L1102.86 21.8465C1103.74 20.9699 1104.18 20.271 1104.18 19.7495C1104.15 19.1836 1103.71 18.4847 1102.88 17.6525L1070.27 -14.9447L1076.52 -21.1357L1109.98 12.3047C1112.02 14.3462 1113.02 16.8204 1112.97 19.7384C1112.94 22.612 1111.92 25.0529 1109.9 27.0611L1083.5 53.1899L1083.49 53.1788Z" fill="white"/>
<path opacity="0.5" d="M278.256 1156.9C276.192 1158.94 273.707 1159.98 270.823 1159.98C267.927 1159.98 265.465 1158.96 263.423 1156.92L229.964 1123.48L236.166 1117.35L268.782 1149.95C269.614 1150.78 270.313 1151.21 270.889 1151.24C271.455 1151.21 272.165 1150.77 273.008 1149.93L297.626 1125.57C298.502 1124.69 298.946 1123.99 298.946 1123.47C298.912 1122.91 298.48 1122.21 297.648 1121.38L265.032 1088.78L271.289 1082.59L304.748 1116.03C306.789 1118.07 307.787 1120.54 307.732 1123.46C307.71 1126.34 306.689 1128.78 304.67 1130.78L278.267 1156.91L278.256 1156.9Z" fill="white"/>
<path opacity="0.5" d="M1373.76 67.3029C1371.7 69.3444 1369.21 70.3762 1366.33 70.3762C1363.43 70.3762 1360.97 69.3555 1358.93 67.3251L1325.47 33.8846L1331.67 27.7491L1364.29 60.3463C1365.12 61.1784 1365.82 61.6111 1366.39 61.6444C1366.96 61.6111 1367.67 61.1673 1368.51 60.3352L1393.13 35.9705C1394.01 35.094 1394.45 34.395 1394.45 33.8735C1394.42 33.3077 1393.98 32.6087 1393.15 31.7766L1360.54 -0.820683L1366.79 -7.01172L1400.25 26.4288C1402.29 28.4702 1403.29 30.9444 1403.24 33.8624C1403.21 36.736 1402.19 39.1769 1400.17 41.1851L1373.77 67.314L1373.76 67.3029Z" fill="white"/>
<path opacity="0.5" d="M1949.56 640.018C1947.5 642.059 1945.01 643.091 1942.13 643.091C1939.23 643.091 1936.77 642.07 1934.73 640.04L1901.27 606.599L1907.47 600.464L1940.09 633.061C1940.92 633.893 1941.62 634.326 1942.2 634.359C1942.76 634.326 1943.47 633.882 1944.31 633.05L1968.93 608.685C1969.81 607.809 1970.25 607.11 1970.25 606.588C1970.22 606.022 1969.79 605.324 1968.95 604.491L1936.34 571.894L1942.59 565.703L1976.05 599.144C1978.1 601.185 1979.09 603.659 1979.04 606.577C1979.02 609.451 1978 611.892 1975.98 613.9L1949.57 640.029L1949.56 640.018Z" fill="white"/>
<path opacity="0.5" d="M1660.88 352.878C1658.82 354.92 1656.33 355.951 1653.45 355.951C1650.55 355.951 1648.09 354.931 1646.05 352.9L1612.59 319.46L1618.79 313.324L1651.4 345.921C1652.24 346.754 1652.94 347.186 1653.51 347.22C1654.08 347.186 1654.79 346.742 1655.63 345.91L1680.25 321.546C1681.13 320.669 1681.57 319.97 1681.57 319.449C1681.54 318.883 1681.1 318.184 1680.27 317.352L1647.65 284.754L1653.91 278.563L1687.37 312.004C1689.41 314.045 1690.41 316.52 1690.36 319.438C1690.33 322.311 1689.31 324.752 1687.29 326.76L1660.89 352.889L1660.88 352.878Z" fill="white"/>
<path opacity="0.5" d="M-10.4276 869.774C-12.491 871.815 -14.9761 872.847 -17.8605 872.847C-20.7559 872.847 -23.2188 871.826 -25.26 869.796L-58.719 836.355L-52.5175 830.22L-19.9017 862.817C-19.0697 863.649 -18.3708 864.082 -17.7939 864.115C-17.2281 864.082 -16.5181 863.638 -15.675 862.806L8.94222 838.441C9.81863 837.565 10.2624 836.866 10.2624 836.344C10.2291 835.778 9.79645 835.079 8.96441 834.247L-23.6514 801.65L-17.3945 795.459L16.0645 828.899C18.1057 830.941 19.1042 833.415 19.0487 836.333C19.0265 839.207 18.0059 841.648 15.9868 843.656L-10.4165 869.785L-10.4276 869.774Z" fill="white"/>
<path opacity="0.5" d="M414.721 1292.63C412.657 1294.67 410.172 1295.7 407.288 1295.7C404.393 1295.7 401.93 1294.68 399.888 1292.65L366.429 1259.21L372.631 1253.07L405.247 1285.67C406.079 1286.5 406.778 1286.94 407.355 1286.97C407.92 1286.94 408.63 1286.49 409.473 1285.66L434.091 1261.3C434.967 1260.42 435.411 1259.72 435.411 1259.2C435.378 1258.63 434.945 1257.93 434.113 1257.1L401.497 1224.5L407.754 1218.31L441.213 1251.75C443.254 1253.8 444.253 1256.27 444.197 1259.19C444.175 1262.06 443.154 1264.5 441.135 1266.51L414.732 1292.64L414.721 1292.63Z" fill="white"/>
<path opacity="0.5" d="M1510.21 203.027C1508.15 205.069 1505.66 206.101 1502.78 206.101C1499.88 206.101 1497.42 205.08 1495.38 203.05L1461.92 169.609L1468.12 163.474L1500.74 196.071C1501.57 196.903 1502.27 197.336 1502.85 197.369C1503.41 197.336 1504.12 196.892 1504.97 196.06L1529.58 171.695C1530.46 170.819 1530.9 170.12 1530.9 169.598C1530.87 169.032 1530.44 168.333 1529.61 167.501L1496.99 134.904L1503.25 128.713L1536.71 162.153C1538.75 164.195 1539.75 166.669 1539.69 169.587C1539.67 172.461 1538.65 174.902 1536.63 176.91L1510.22 203.039L1510.21 203.027Z" fill="white"/>
<path opacity="0.5" d="M1797.33 488.604C1795.27 490.645 1792.78 491.677 1789.9 491.677C1787 491.677 1784.54 490.656 1782.5 488.626L1749.04 455.185L1755.24 449.05L1787.86 481.647C1788.69 482.479 1789.39 482.912 1789.97 482.945C1790.53 482.912 1791.24 482.468 1792.09 481.636L1816.7 457.271C1817.58 456.395 1818.02 455.696 1818.02 455.174C1817.99 454.608 1817.56 453.909 1816.72 453.077L1784.11 420.48L1790.37 414.289L1823.82 447.729C1825.87 449.771 1826.86 452.245 1826.81 455.163C1826.79 458.037 1825.77 460.478 1823.75 462.486L1797.34 488.615L1797.33 488.604Z" fill="white"/>
<path opacity="0.5" d="M126.037 1005.5C123.974 1007.54 121.489 1008.57 118.605 1008.57C115.709 1008.57 113.246 1007.55 111.205 1005.52L77.7461 972.081L83.9475 965.945L116.563 998.543C117.395 999.375 118.094 999.807 118.671 999.841C119.237 999.807 119.947 999.364 120.79 998.531L145.407 974.167C146.284 973.29 146.727 972.591 146.727 972.07C146.694 971.504 146.262 970.805 145.429 969.973L112.814 937.376L119.071 931.185L152.53 964.625C154.571 966.666 155.569 969.141 155.514 972.059C155.492 974.932 154.471 977.373 152.452 979.381L126.049 1005.51L126.037 1005.5Z" fill="white"/>
<path opacity="0.5" d="M416.296 1019.61C414.233 1021.65 411.748 1022.69 408.863 1022.69C405.968 1022.69 403.505 1021.67 401.464 1019.63L368.005 986.194L374.206 980.059L406.822 1012.66C407.654 1013.49 408.353 1013.92 408.93 1013.95C409.496 1013.92 410.206 1013.48 411.049 1012.64L435.666 988.28C436.543 987.404 436.986 986.705 436.986 986.183C436.953 985.617 436.52 984.918 435.688 984.086L403.072 951.489L409.329 945.298L442.788 978.738C444.83 980.78 445.828 983.254 445.773 986.172C445.75 989.046 444.73 991.486 442.711 993.495L416.307 1019.62L416.296 1019.61Z" fill="white"/>
<path opacity="0.5" d="M1798.91 215.588C1796.84 217.63 1794.36 218.661 1791.48 218.661C1788.58 218.661 1786.12 217.641 1784.08 215.61L1750.62 182.17L1756.82 176.034L1789.43 208.631C1790.27 209.464 1790.96 209.896 1791.54 209.93C1792.11 209.896 1792.82 209.452 1793.66 208.62L1818.28 184.256C1819.15 183.379 1819.6 182.68 1819.6 182.159C1819.56 181.593 1819.13 180.894 1818.3 180.062L1785.68 147.464L1791.94 141.273L1825.4 174.714C1827.44 176.755 1828.44 179.23 1828.38 182.148C1828.36 185.021 1827.34 187.462 1825.32 189.47L1798.92 215.599L1798.91 215.588Z" fill="white"/>
<path opacity="0.5" d="M127.613 732.484C125.549 734.525 123.064 735.557 120.18 735.557C117.284 735.557 114.822 734.536 112.78 732.506L79.3213 699.065L85.5227 692.93L118.139 725.527C118.971 726.359 119.67 726.792 120.246 726.825C120.812 726.792 121.522 726.348 122.365 725.516L146.982 701.151C147.859 700.275 148.303 699.576 148.303 699.054C148.269 698.488 147.837 697.789 147.005 696.957L114.389 664.36L120.646 658.169L154.105 691.609C156.146 693.651 157.144 696.125 157.089 699.043C157.067 701.917 156.046 704.358 154.027 706.366L127.624 732.495L127.613 732.484Z" fill="white"/>
<path opacity="0.5" d="M552.75 1155.34C550.687 1157.38 548.202 1158.41 545.317 1158.41C542.422 1158.41 539.959 1157.39 537.918 1155.36L504.459 1121.92L510.66 1115.78L543.276 1148.38C544.108 1149.21 544.807 1149.65 545.384 1149.68C545.95 1149.65 546.66 1149.2 547.503 1148.37L572.12 1124.01C572.996 1123.13 573.44 1122.43 573.44 1121.91C573.407 1121.34 572.974 1120.64 572.142 1119.81L539.526 1087.21L545.783 1081.02L579.242 1114.46C581.283 1116.51 582.282 1118.98 582.226 1121.9C582.204 1124.77 581.184 1127.21 579.165 1129.22L552.761 1155.35L552.75 1155.34Z" fill="white"/>
<path opacity="0.5" d="M1648.24 65.7267C1646.18 67.7682 1643.69 68.8 1640.81 68.8C1637.91 68.8 1635.45 67.7793 1633.41 65.7489L1599.95 32.3084L1606.15 26.1729L1638.77 58.7701C1639.6 59.6022 1640.3 60.035 1640.88 60.0682C1641.44 60.035 1642.15 59.5912 1643 58.759L1667.61 34.3943C1668.49 33.5178 1668.93 32.8188 1668.93 32.2973C1668.9 31.7315 1668.47 31.0325 1667.63 30.2004L1635.02 -2.39685L1641.28 -8.58789L1674.73 24.8526C1676.78 26.8941 1677.77 29.3683 1677.72 32.2863C1677.7 35.1599 1676.68 37.6008 1674.66 39.609L1648.25 65.7378L1648.24 65.7267Z" fill="white"/>
<path opacity="0.5" d="M-23.0523 582.623C-25.1158 584.665 -27.6008 585.697 -30.4852 585.697C-33.3807 585.697 -35.8435 584.676 -37.8848 582.645L-71.3438 549.205L-65.1423 543.069L-32.5265 575.667C-31.6944 576.499 -30.9955 576.931 -30.4186 576.965C-29.8529 576.931 -29.1428 576.488 -28.2997 575.656L-3.68253 551.291C-2.80612 550.414 -2.36237 549.715 -2.36237 549.194C-2.39565 548.628 -2.82831 547.929 -3.66034 547.097L-36.2762 514.5L-30.0193 508.309L3.4397 541.749C5.48096 543.791 6.47941 546.265 6.42393 549.183C6.40175 552.056 5.38113 554.497 3.36205 556.505L-23.0412 582.634L-23.0523 582.623Z" fill="white"/>
<path opacity="0.5" d="M1935.37 351.302C1933.31 353.343 1930.82 354.375 1927.94 354.375C1925.05 354.375 1922.58 353.354 1920.54 351.324L1887.08 317.884L1893.28 311.748L1925.9 344.345C1926.73 345.177 1927.43 345.61 1928.01 345.643C1928.57 345.61 1929.28 345.166 1930.13 344.334L1954.74 319.97C1955.62 319.093 1956.06 318.394 1956.06 317.873C1956.03 317.307 1955.6 316.608 1954.77 315.776L1922.15 283.178L1928.41 276.987L1961.87 310.428C1963.91 312.469 1964.91 314.943 1964.85 317.861C1964.83 320.735 1963.81 323.176 1961.79 325.184L1935.38 351.313L1935.37 351.302Z" fill="white"/>
<path opacity="0.5" d="M264.067 868.198C262.003 870.24 259.518 871.272 256.634 871.272C253.738 871.272 251.276 870.251 249.234 868.221L215.775 834.78L221.977 828.645L254.593 861.242C255.425 862.074 256.124 862.507 256.7 862.54C257.266 862.507 257.976 862.063 258.819 861.231L283.437 836.866C284.313 835.989 284.757 835.29 284.757 834.769C284.723 834.203 284.291 833.504 283.459 832.672L250.843 800.075L257.1 793.884L290.559 827.324C292.6 829.366 293.599 831.84 293.543 834.758C293.521 837.632 292.5 840.072 290.481 842.081L264.078 868.209L264.067 868.198Z" fill="white"/>
</g>
<defs>
<clipPath id="clip0_67_432">
<rect width="2424" height="1246" fill="white" transform="translate(-128)"/>
</clipPath>
</defs>
</svg>
