<svg width="271" height="271" viewBox="0 0 271 271" fill="none" xmlns="http://www.w3.org/2000/svg">
<g clip-path="url(#clip0_2034_94)">
<rect width="271" height="271" fill="#464C55"/>
<path fill-rule="evenodd" clip-rule="evenodd" d="M229.397 37.0727C232.181 37.0727 234.449 39.3412 234.46 42.1357L234.46 194.178L224.334 194.178L224.345 47.1877L77.3551 47.1986L77.3551 37.0727L229.397 37.0727Z" fill="white"/>
<path fill-rule="evenodd" clip-rule="evenodd" d="M36.062 230.408C36.062 233.191 38.3305 235.46 41.125 235.471L193.167 235.471L193.167 225.345H46.166L46.188 78.3657L36.062 78.3657L36.062 230.408Z" fill="white"/>
<path d="M114.176 176.008C110.132 175.997 106.68 174.584 103.831 171.734C100.993 168.896 99.579 165.466 99.579 161.455L99.7324 95.549L111.886 95.5819L111.721 159.811C111.721 161.455 111.973 162.562 112.51 163.165C113.102 163.691 114.231 163.943 115.886 163.954L164.137 164.074C165.869 164.074 166.986 163.811 167.512 163.307C168.038 162.715 168.301 161.598 168.301 159.954L168.466 95.7244L180.729 95.7572L180.575 161.663C180.564 165.685 179.096 169.104 176.159 171.932C173.299 174.748 169.89 176.162 165.912 176.151L114.165 176.019L114.176 176.008Z" fill="white"/>
</g>
<defs>
<clipPath id="clip0_2034_94">
<rect width="271" height="271" fill="white"/>
</clipPath>
</defs>
</svg>
