<svg width="322" height="1478" viewBox="0 0 322 1478" fill="none" xmlns="http://www.w3.org/2000/svg">
<g opacity="0.3" clip-path="url(#clip0_16_1281)">
<path fill-rule="evenodd" clip-rule="evenodd" d="M322 1426.07C322 1440.45 316.338 1452.7 305.006 1462.82C293.681 1472.94 279.963 1478 263.866 1478L0.00012207 1478L0.000120184 1434.86L257.148 1434.86C263.708 1434.86 268.181 1433.92 270.559 1432.06C272.654 1429.93 273.694 1425.93 273.694 1420.07L273.694 1248.7C273.694 1242.58 272.654 1238.58 270.559 1236.72C268.181 1234.85 263.7 1233.91 257.148 1233.91L0.000111401 1233.91L0.000109498 1190.37L263.858 1190.37C279.954 1190.37 293.673 1195.56 304.997 1205.95C316.33 1216.07 321.992 1228.19 321.992 1242.3L321.992 1426.07L322 1426.07Z" fill="#474D55"/>
<path fill-rule="evenodd" clip-rule="evenodd" d="M322 1094.45L0.00012207 1094.45L0.000119818 1042.92L148.479 931.47L0.000110092 820.417L0.000107822 768.493L322 768.493L322 812.03L64.8441 812.03L224.057 931.47L64.8441 1051.32L322 1051.32L322 1094.45Z" fill="#474D55"/>
<path fill-rule="evenodd" clip-rule="evenodd" d="M133.721 612.801L133.721 453.02C133.721 447.158 132.673 443.3 130.594 441.437C128.208 439.568 123.735 438.637 117.175 438.637L64.8524 438.637C58.2923 438.637 53.9688 439.568 51.8819 441.437C49.4957 443.3 48.3067 447.158 48.3067 453.02L48.3067 612.801C48.3067 618.663 49.4957 622.656 51.8819 624.786C53.9688 626.656 58.2923 627.587 64.8524 627.587L117.175 627.587C123.735 627.587 128.208 626.656 130.594 624.786C132.681 622.656 133.721 618.663 133.721 612.801ZM273.702 612.801L273.702 441.43C273.702 435.575 272.662 431.709 270.567 429.84C268.189 427.717 263.708 426.644 257.156 426.644L198.573 426.644C192.013 426.644 187.689 427.709 185.602 429.84C183.216 431.709 182.027 435.568 182.027 441.43L182.027 612.801C182.027 618.663 183.216 622.656 185.602 624.786C187.689 626.656 192.013 627.587 198.573 627.587L257.156 627.587C263.716 627.587 268.189 626.656 270.567 624.786C272.663 622.656 273.702 618.663 273.702 612.801ZM322 670.722L6.10352e-05 670.722L5.12567e-05 447.016C5.06283e-05 432.64 5.66216 420.387 16.9947 410.272C28.3189 400.149 42.0377 395.092 58.1343 395.092L123.876 395.092C127.759 395.092 131.625 395.494 135.5 396.284C139.374 396.82 142.958 397.885 146.234 399.479C154.581 394.153 162.339 390.161 169.489 387.494C176.639 384.567 184.106 383.099 191.847 383.099L263.849 383.099C279.946 383.099 293.665 388.291 304.989 398.675C316.321 408.797 321.984 421.043 321.984 435.426L321.984 670.714L322 670.722Z" fill="#474D55"/>
<path fill-rule="evenodd" clip-rule="evenodd" d="M322 235.69C322 250.066 316.338 262.327 305.005 272.442C293.681 282.565 279.962 287.63 263.866 287.63L58.1426 287.63C42.046 287.63 28.3272 282.565 17.003 272.442C5.67047 262.327 0.00836017 250.074 0.00835955 235.69L0.00835153 52.3342C0.00835089 37.6902 5.67046 25.303 17.003 15.1803C28.3272 5.06503 42.046 -6.28727e-05 58.1426 -6.35763e-05L77.3738 -6.44169e-05L77.3738 43.5448L64.8523 43.5448C58.2923 43.5448 53.9688 44.61 51.8819 46.7403C49.4957 48.6024 48.3067 52.4683 48.3067 58.323L48.3067 229.702C48.3067 235.556 49.4957 239.549 51.8819 241.679C53.9688 243.549 58.2923 244.48 64.8524 244.48L257.156 244.48C263.716 244.48 268.189 243.549 270.567 241.679C272.662 239.549 273.702 235.556 273.702 229.702L273.702 58.323C273.702 52.4683 272.662 48.6024 270.567 46.7403C268.189 44.6099 263.708 43.5448 257.156 43.5448L194.1 43.5448L194.1 111.454L145.352 111.454L145.352 -6.73883e-05L263.866 -7.25687e-05C279.962 -7.32723e-05 293.681 5.06502 305.005 15.1803C316.338 25.303 322 37.6901 322 52.3342L322 235.69Z" fill="#474D55"/>
</g>
<defs>
<clipPath id="clip0_16_1281">
<rect width="1478" height="322" fill="white" transform="translate(0.00012207 1478) rotate(-90)"/>
</clipPath>
</defs>
</svg>
