<svg width="144" height="734" viewBox="0 0 144 734" fill="none" xmlns="http://www.w3.org/2000/svg">
<g opacity="0.2" clip-path="url(#clip0_3_539)">
<path fill-rule="evenodd" clip-rule="evenodd" d="M144 708.21C144 715.353 141.468 721.438 136.4 726.461C131.336 731.488 125.201 734 118.002 734L0 734L-9.36532e-07 712.575L114.998 712.575C117.931 712.575 119.932 712.109 120.995 711.184C121.932 710.126 122.397 708.139 122.397 705.232L122.397 620.126C122.397 617.085 121.932 615.099 120.995 614.174C119.932 613.249 117.928 612.783 114.998 612.783L-5.29856e-06 612.783L-6.24382e-06 591.158L117.998 591.158C125.197 591.158 131.332 593.736 136.396 598.897C141.464 603.92 143.996 609.939 143.996 616.948L143.996 708.21L144 708.21Z" fill="#474D55"/>
<path fill-rule="evenodd" clip-rule="evenodd" d="M144 543.524L0 543.524L-1.1186e-06 517.934L66.4003 462.584L-5.94873e-06 407.433L-7.0759e-06 381.647L144 381.647L144 403.268L28.9986 403.268L100.199 462.584L28.9986 522.103L144 522.103L144 543.524Z" fill="#474D55"/>
<path fill-rule="evenodd" clip-rule="evenodd" d="M59.8004 304.327L59.8004 224.977C59.8004 222.066 59.3319 220.15 58.4024 219.225C57.3352 218.297 55.3348 217.834 52.4011 217.834L29.0022 217.834C26.0686 217.834 24.1351 218.297 23.2018 219.225C22.1347 220.15 21.6029 222.066 21.6029 224.977L21.6029 304.327C21.6029 307.239 22.1347 309.221 23.2018 310.279C24.1351 311.208 26.0686 311.67 29.0022 311.67L52.4011 311.67C55.3348 311.67 57.3352 311.208 58.4024 310.279C59.3357 309.221 59.8004 307.239 59.8004 304.327ZM122.401 304.327L122.401 219.222C122.401 216.314 121.936 214.394 120.999 213.466C119.936 212.411 117.931 211.879 115.001 211.879L88.8027 211.879C85.869 211.879 83.9355 212.408 83.0023 213.466C81.9351 214.394 81.4034 216.31 81.4034 219.222L81.4034 304.327C81.4034 307.239 81.9351 309.221 83.0023 310.279C83.9355 311.208 85.869 311.67 88.8027 311.67L115.001 311.67C117.935 311.67 119.936 311.208 120.999 310.279C121.936 309.221 122.401 307.239 122.401 304.327ZM144 333.092L-3.05176e-05 333.092L-3.53737e-05 221.996C-3.56858e-05 214.857 2.53209 208.772 7.60005 203.748C12.6643 198.721 18.7994 196.209 25.9979 196.209L55.398 196.209C57.1345 196.209 58.8634 196.409 60.5961 196.801C62.3288 197.068 63.9314 197.596 65.3964 198.388C69.1295 195.743 72.5986 193.76 75.7963 192.436C78.994 190.982 82.333 190.254 85.7947 190.254L117.995 190.254C125.193 190.254 131.328 192.832 136.392 197.989C141.46 203.016 143.993 209.097 143.993 216.24L143.993 333.088L144 333.092Z" fill="#474D55"/>
<path fill-rule="evenodd" clip-rule="evenodd" d="M144 117.048C144 124.187 141.468 130.276 136.4 135.299C131.336 140.326 125.201 142.842 118.002 142.842L26.0016 142.842C18.8031 142.842 12.668 140.327 7.60378 135.299C2.53581 130.276 0.00369181 124.191 0.0036915 117.048L0.00368752 25.9901C0.0036872 18.7176 2.53581 12.5659 7.60377 7.53882C12.668 2.5154 18.8031 -1.60805e-05 26.0016 -1.63952e-05L34.6019 -1.67711e-05L34.6019 21.6251L29.0022 21.6251C26.0686 21.6251 24.1351 22.1541 23.2018 23.212C22.1347 24.1368 21.6029 26.0567 21.6029 28.9642L21.603 114.074C21.603 116.981 22.1347 118.964 23.2018 120.022C24.1351 120.95 26.0686 121.413 29.0023 121.413L115.001 121.413C117.935 121.413 119.936 120.95 120.999 120.022C121.936 118.964 122.401 116.981 122.401 114.074L122.401 28.9642C122.401 26.0567 121.936 24.1368 120.999 23.212C119.936 22.1541 117.931 21.6251 115.001 21.6251L86.8023 21.6251L86.8023 55.3501L65.0023 55.3501L65.0023 -1.81e-05L118.002 -2.04167e-05C125.201 -2.07313e-05 131.336 2.51539 136.4 7.53881C141.468 12.5659 144 18.7176 144 25.9901L144 117.048Z" fill="#474D55"/>
</g>
<defs>
<clipPath id="clip0_3_539">
<rect width="734" height="144" fill="white" transform="translate(0 734) rotate(-90)"/>
</clipPath>
</defs>
</svg>
